G04 ================== begin FILE IDENTIFICATION RECORD ==================*
G04 Layout Name:  G:/GitHub/ESP8266-Module/Hardware/PCB/ESP8266_Finish.brd*
G04 Film Name:    01_TOP*
G04 File Format:  Gerber RS274X*
G04 File Origin:  Cadence Allegro 16.6-2015-S108*
G04 Origin Date:  Sat Feb 29 16:27:17 2020*
G04 *
G04 Layer:  BOARD GEOMETRY/OUTLINE*
G04 Layer:  ETCH/TOP*
G04 Layer:  PIN/TOP*
G04 Layer:  VIA CLASS/TOP*
G04 *
G04 Offset:    (0.000 0.000)*
G04 Mirror:    No*
G04 Mode:      Positive*
G04 Rotation:  0*
G04 FullContactRelief:  No*
G04 UndefLineWidth:     6.000*
G04 ================== end FILE IDENTIFICATION RECORD ====================*
%FSLAX25Y25*MOIN*%
%IR0*IPPOS*OFA0.00000B0.00000*MIA0B0*SFA1.00000B1.00000*%
%ADD14C,.024*%
%ADD12R,.036614X.037402*%
%ADD13C,.062992*%
%ADD10R,.047244X.07874*%
%ADD15R,.062992X.062992*%
%ADD11R,.094488X.047244*%
%ADD16C,.01*%
%ADD17C,.015*%
%ADD18C,.006*%
%ADD19C,.092996*%
G75*
%LPD*%
G75*
G36*
G01X25000Y27071D02*
Y28500D01*
G03X24743Y29170I-1000J0D01*
G01X24689Y29229D01*
X24694Y29388D01*
X26621Y31316D01*
G03X22378Y35559I-2121J2121D01*
G01X19178Y32359D01*
X19046Y32341D01*
X18987Y32373D01*
G03X18500Y32500I-487J-873D01*
G01X17024D01*
G02X16824Y32700I0J200D01*
G01Y47300D01*
G02X17024Y47500I200J0D01*
G01X19311D01*
G02X19452Y47441I0J-200D01*
G01X37441Y29452D01*
G02X37500Y29311I-141J-141D01*
G01Y27500D01*
G03X37514Y27336I1000J0D01*
G01X37521Y27293D01*
X37497Y27208D01*
X37271Y26941D01*
G02X37119Y26871I-153J129D01*
G01X25200D01*
G02X25000Y27071I0J200D01*
G37*
G36*
G01X62500Y2500D02*
G02X61500Y1500I-1000J0D01*
G01X5181D01*
G02X3500Y3181I0J1681D01*
G01Y9500D01*
G02X4500Y10500I1000J0D01*
G01X7356D01*
G03X7423I33J3000D01*
G01X10000D01*
G03X11000Y11500I0J1000D01*
G01Y13830D01*
X11021D01*
Y15267D01*
G02X11026Y15312I200J0D01*
G02X11293Y15793I974J-226D01*
G01X11707Y16207D01*
G03X12000Y16914I-707J707D01*
G01Y17500D01*
G02X12702Y18455I1000J0D01*
G02X12810Y18458I60J-191D01*
G03X14378Y18492I721J2912D01*
G01X14406Y18500D01*
X17086D01*
G02X17637Y18334I0J-1000D01*
G01X17642Y18339D01*
X17782Y18225D01*
G03X17859Y18168I631J775D01*
G02X17948Y18002I-111J-166D01*
G01Y15596D01*
G03X18148Y15396I200J0D01*
G01X65443D01*
G03X65643Y15596I0J200D01*
G01Y26671D01*
G03X65443Y26871I-200J0D01*
G01X61321D01*
G02X61165Y26945I0J200D01*
G01X60941Y27224D01*
X60921Y27312D01*
X60930Y27356D01*
G03X56466Y30578I-2930J643D01*
G02X56364Y30550I-102J172D01*
G01X43639D01*
G02X43498Y30609I0J200D01*
G01X25559Y48548D01*
G02X25500Y48689I141J141D01*
G01Y56086D01*
G03X25207Y56793I-1000J0D01*
G01X24359Y57641D01*
G02X24300Y57783I141J141D01*
G01Y80046D01*
G03X24242Y80188I-200J0D01*
G01X20967Y83462D01*
X20940Y83570D01*
X20957Y83623D01*
G03X21000Y83914I-957J291D01*
G01Y84586D01*
G03X20707Y85293I-1000J0D01*
G01X18793Y87207D01*
G03X18086Y87500I-707J-707D01*
G01X17500D01*
G03X17103Y87418I0J-1000D01*
G01X17065Y87402D01*
X16923D01*
X16882Y87442D01*
G03X16741Y87501I-141J-141D01*
G01X3700D01*
G02X3500Y87701I0J200D01*
G01Y91500D01*
G02X4500Y92500I1000J0D01*
G01X78303D01*
G02X79303Y91500I0J-1000D01*
G01Y87701D01*
G02X79103Y87501I-200J0D01*
G01X66179D01*
G03X65979Y87301I0J-200D01*
G01Y85838D01*
G02X65779Y85638I-200J0D01*
G01X60968D01*
G03X60827Y85580I0J-200D01*
G01X57762Y82515D01*
X57701Y82485D01*
X57667Y82482D01*
G03X57416Y82443I333J-2982D01*
G02X57315Y82449I-39J196D01*
G03X57000Y82500I-315J-949D01*
G01X55000D01*
G03X54531Y82383I0J-1000D01*
G02X54379Y82369I-94J177D01*
G03X51906Y76958I-879J-2869D01*
G02X52000Y76789I-106J-169D01*
G01Y75000D01*
G03X52026Y74775I1000J0D01*
G02X51935Y74560I-195J-45D01*
G03X50853Y70588I1565J-2560D01*
G01X50878Y70542D01*
X50875Y70436D01*
X50671Y70097D01*
G02X50500Y70000I-172J103D01*
G01X47689D01*
G02X47548Y70059I0J200D01*
G01X45615Y71992D01*
G03X45474Y72050I-141J-141D01*
G01X34136D01*
G02X34034Y72078I0J200D01*
G03Y66922I-1534J-2578D01*
G02X34136Y66950I102J-172D01*
G01X43361D01*
G02X43502Y66891I0J-200D01*
G01X46559Y63835D01*
X46585Y63788D01*
X46592Y63762D01*
G03X50647Y61728I2908J738D01*
G01X50693Y61747D01*
X50793Y61737D01*
X51111Y61524D01*
G02X51200Y61358I-111J-166D01*
G01Y57536D01*
G02X51141Y57394I-200J0D01*
G01X49262Y55515D01*
X49201Y55485D01*
X49167Y55482D01*
G03X52482Y52167I333J-2982D01*
G01X52485Y52201D01*
X52515Y52262D01*
X55742Y55489D01*
G03X55800Y55630I-141J141D01*
G01Y70002D01*
G02X55844Y70127I200J0D01*
G03X56424Y72674I-2344J1873D01*
G01X56413Y72719D01*
X56433Y72808D01*
X56657Y73088D01*
G02X56813Y73164I157J-125D01*
G01X65779D01*
G02X65979Y72964I0J-200D01*
G01Y67190D01*
G02X65867Y67011I-200J0D01*
G01X65494Y66827D01*
X65380Y66839D01*
X65335Y66874D01*
G03X61156Y62627I-1835J-2374D01*
G02X61200Y62502I-156J-125D01*
G01Y57614D01*
G03X61258Y57472I200J0D01*
G01X65921Y52810D01*
G02X65979Y52669I-141J-141D01*
G01Y49756D01*
G02X65856Y49572I-200J0D01*
G01X65800Y49548D01*
X65681Y49572D01*
X62515Y52738D01*
X62485Y52799D01*
X62482Y52833D01*
G03X59167Y49518I-2982J-333D01*
G01X59201Y49515D01*
X59262Y49485D01*
X61641Y47106D01*
G02X61700Y46964I-141J-141D01*
G01Y41130D01*
G03X61758Y40989I200J0D01*
G01X65921Y36826D01*
G02X65979Y36685I-141J-141D01*
G01Y32132D01*
G03X66179Y31932I200J0D01*
G01X79103D01*
G02X79303Y31732I0J-200D01*
G01Y3181D01*
G02X77622Y1500I-1681J0D01*
G01X73500D01*
G02X72500Y2500I0J1000D01*
G03X72458Y2786I-1000J0D01*
G01X72450Y2814D01*
Y11750D01*
G03X72250Y11950I-200J0D01*
G01X62750D01*
G03X62550Y11750I0J-200D01*
G01Y2814D01*
X62542Y2786D01*
G03X62500Y2500I958J-286D01*
G37*
%LPC*%
G75*
G36*
G01X23918Y3500D02*
X21082D01*
G03X20943Y3444I0J-200D01*
G02X20364Y11037I-3443J3556D01*
G03X20480Y11000I116J163D01*
G01X24520D01*
G03X24636Y11037I0J200D01*
G02X30364I2864J-4037D01*
G03X30480Y11000I116J163D01*
G01X34520D01*
G03X34636Y11037I0J200D01*
G02X40364I2864J-4037D01*
G03X40480Y11000I116J163D01*
G01X44520D01*
G03X44636Y11037I0J200D01*
G02X44057Y3444I2864J-4037D01*
G03X43918Y3500I-139J-144D01*
G01X41082D01*
G03X40943Y3444I0J-200D01*
G02X34057I-3443J3556D01*
G03X33918Y3500I-139J-144D01*
G01X31082D01*
G03X30943Y3444I0J-200D01*
G02X24057I-3443J3556D01*
G03X23918Y3500I-139J-144D01*
G37*
G54D19*
X57500Y7000D03*
%LPD*%
G75*
G54D10*
X29984Y21134D03*
X22110D03*
X61480D03*
X53606D03*
X45732D03*
X37858D03*
G54D11*
X10299Y28220D03*
Y36094D03*
Y43968D03*
Y51842D03*
Y59716D03*
Y67590D03*
Y75464D03*
Y83338D03*
X72504Y28220D03*
Y59716D03*
Y51842D03*
Y43968D03*
Y36094D03*
Y83338D03*
Y75464D03*
Y67590D03*
G54D12*
X13610Y17500D03*
X7390D03*
G54D13*
X17500Y7000D03*
X27500D03*
X37500D03*
X47500D03*
X57500D03*
G54D14*
G01X10299Y28220D02*
X19282D01*
X24500Y33438D01*
X10000Y4000D03*
X7500Y8500D03*
X13531Y21370D03*
X7390Y13500D03*
X29000Y31500D03*
X24500Y33438D03*
X22000Y55000D03*
X18000Y76500D03*
X17838Y83338D03*
X18500Y62500D03*
X5700Y91000D03*
X10700D03*
X15700D03*
X20700D03*
X25700D03*
X30700D03*
X57500Y14000D03*
X49000D03*
X58000Y28000D03*
X33000Y31500D03*
X45000Y56000D03*
X49500Y47000D03*
X40000D03*
X49500Y57500D03*
X60000Y47000D03*
X32500D03*
X58000Y32500D03*
X52500D03*
X59500Y52500D03*
X49500D03*
X55700Y85500D03*
X45700D03*
X40500Y80000D03*
X35700Y75500D03*
Y85500D03*
X49500Y64500D03*
X32500Y69500D03*
X53500Y79500D03*
X58000D03*
X53500Y72000D03*
X35700Y91000D03*
X40700D03*
X45700D03*
X50700D03*
X55700D03*
X60700D03*
X77000Y5500D03*
Y11500D03*
Y18500D03*
X64500Y52500D03*
X63500Y64500D03*
X65700Y91000D03*
X70700D03*
X75700D03*
G54D15*
X67500Y7000D03*
G54D16*
G01X7390Y17500D02*
Y13500D01*
G01X22000Y55000D02*
Y79176D01*
X17838Y83338D01*
G01X18000Y76500D02*
X16500Y75000D01*
Y71429D01*
X12661Y67590D01*
X10299D01*
G01Y83338D02*
X17838D01*
G01X72504Y36094D02*
X69906D01*
X64000Y42000D01*
Y48000D01*
X59500Y52500D01*
G01X53500Y72000D02*
Y56500D01*
X49500Y52500D01*
G01X72504Y75464D02*
X57536D01*
X53500Y79500D01*
G01X58000D02*
X61838Y83338D01*
X72504D01*
G01X63500Y64500D02*
Y58484D01*
X70142Y51842D01*
X72504D01*
G54D17*
G01X10299Y28220D02*
Y24602D01*
X13531Y21370D01*
G01X18500Y62500D02*
Y52000D01*
X42500Y28000D01*
X58000D01*
G01X57500Y7000D02*
Y11850D01*
G01X52650Y7000D02*
X57500D01*
G01D02*
X62350D01*
G01X32500Y69500D02*
X44500D01*
X49500Y64500D01*
G54D18*
G01X77622Y118173D02*
G02X80803Y114992I0J-3181D01*
G01Y3181D01*
G02X77622Y0I-3181J0D01*
G01X5181D01*
G02X2000Y3181I0J3181D01*
G01Y114992D01*
G02X5181Y118173I3181J0D01*
G01X77622D01*
G01D02*
G02X80803Y114992I0J-3181D01*
G01Y3181D01*
G02X77622Y0I-3181J0D01*
G01X5181D01*
G02X2000Y3181I0J3181D01*
G01Y114992D01*
G02X5181Y118173I3181J0D01*
G01X77622D01*
M02*
