G04 ================== begin FILE IDENTIFICATION RECORD ==================*
G04 Layout Name:  G:/GitHub/ESP8266-Module/Hardware/PCB/ESP8266_Finish.brd*
G04 Film Name:    02_BOTTOM*
G04 File Format:  Gerber RS274X*
G04 File Origin:  Cadence Allegro 16.6-2015-S108*
G04 Origin Date:  Sat Feb 29 16:27:17 2020*
G04 *
G04 Layer:  BOARD GEOMETRY/OUTLINE*
G04 Layer:  ETCH/BOTTOM*
G04 Layer:  PIN/BOTTOM*
G04 Layer:  VIA CLASS/BOTTOM*
G04 *
G04 Offset:    (0.000 0.000)*
G04 Mirror:    No*
G04 Mode:      Positive*
G04 Rotation:  0*
G04 FullContactRelief:  No*
G04 UndefLineWidth:     6.000*
G04 ================== end FILE IDENTIFICATION RECORD ====================*
%FSLAX25Y25*MOIN*%
%IR0*IPPOS*OFA0.00000B0.00000*MIA0B0*SFA1.00000B1.00000*%
%ADD14R,.084646X.137795*%
%ADD12C,.024*%
%ADD13R,.037402X.036614*%
%ADD10R,.036614X.037402*%
%ADD11C,.062992*%
%ADD16R,.086614X.047244*%
%ADD17R,.062992X.062992*%
%ADD15R,.03937X.027559*%
%ADD18C,.01*%
%ADD19C,.015*%
%ADD20C,.035*%
%ADD21C,.006*%
%ADD22C,.092996*%
G75*
%LPD*%
G75*
G36*
G01X5181Y1500D02*
G02X3500Y3181I0J1681D01*
G01Y9000D01*
G02X4500Y10000I1000J0D01*
G01X11500D01*
G02X12500Y9000I0J-1000D01*
G01Y7500D01*
G03X12544Y7208I1000J0D01*
G02X12552Y7144I-191J-59D01*
G03X20364Y2963I4948J-144D01*
G02X20480Y3000I116J-163D01*
G01X24520D01*
G02X24636Y2963I0J-200D01*
G03X30364I2864J4037D01*
G02X30480Y3000I116J-163D01*
G01X34520D01*
G02X34636Y2963I0J-200D01*
G03X40364I2864J4037D01*
G02X40480Y3000I116J-163D01*
G01X44520D01*
G02X44636Y2963I0J-200D01*
G03X46139Y11759I2864J4037D01*
G01X46087Y11744D01*
X45982Y11772D01*
X42511Y15242D01*
G03X42370Y15300I-141J-141D01*
G01X38036D01*
G02X37894Y15359I0J200D01*
G01X31859Y21394D01*
G02X31800Y21536I141J141D01*
G01Y24870D01*
G03X31742Y25011I-200J0D01*
G01X27386Y29367D01*
X27365Y29494D01*
X27394Y29552D01*
G03X27500Y30000I-894J448D01*
G01Y32000D01*
G02X28500Y33000I1000J0D01*
G01X36063D01*
G02X36263Y32800I0J-200D01*
G01Y28510D01*
G03X36463Y28310I200J0D01*
G01X48128D01*
G03X48328Y28510I0J200D01*
G01Y33800D01*
G02X48528Y34000I200J0D01*
G01X60104D01*
G02X60250Y33936I0J-200D01*
G01X60478Y33691D01*
X60506Y33613D01*
X60502Y33571D01*
G03X60500Y33500I998J-71D01*
G01Y31000D01*
G03X60501Y30964I1000J-1D01*
G01X60502Y30924D01*
X60473Y30848D01*
X60245Y30611D01*
G02X60101Y30550I-144J139D01*
G01X59609D01*
X59557Y30564D01*
X59534Y30578D01*
G03Y25422I-1534J-2578D01*
G01X59557Y25436D01*
X59609Y25450D01*
X60374D01*
G02X60574Y25250I0J-200D01*
G01Y23982D01*
G03X60774Y23782I200J0D01*
G01X62803D01*
G02X63003Y23582I0J-200D01*
G01Y23576D01*
X63002Y23569D01*
G03X63000Y23500I998J-69D01*
G01Y12150D01*
G02X62800Y11950I-200J0D01*
G01X62750D01*
G03X62550Y11750I0J-200D01*
G01Y3314D01*
X62542Y3286D01*
G03X62500Y3000I958J-286D01*
G01Y2500D01*
G02X61500Y1500I-1000J0D01*
G01X5181D01*
G37*
G36*
G01X79303Y3181D02*
G02X77622Y1500I-1681J0D01*
G01X73500D01*
G02X72500Y2500I0J1000D01*
G01Y3000D01*
G03X72458Y3286I-1000J0D01*
G01X72450Y3314D01*
Y11750D01*
G03X72250Y11950I-200J0D01*
G01X70719D01*
G02X70519Y12150I0J200D01*
G01Y14749D01*
X70541Y14771D01*
G03X70599Y14912I-141J141D01*
G01Y22090D01*
X70577Y22112D01*
G02X70519Y22253I141J141D01*
G01Y23582D01*
G02X70719Y23782I200J0D01*
G01X72636D01*
G03X72836Y23982I0J200D01*
G01Y30420D01*
X72850Y30472D01*
X72863Y30495D01*
G03X73000Y31000I-863J505D01*
G01Y33500D01*
G03X72863Y34005I-1000J0D01*
G01X72850Y34028D01*
X72836Y34080D01*
Y40962D01*
G03X72636Y41162I-200J0D01*
G01X60774D01*
G03X60574Y40962I0J-200D01*
G01Y40200D01*
G02X60374Y40000I-200J0D01*
G01X48528D01*
G02X48328Y40200I0J200D01*
G01Y45490D01*
G03X48128Y45690I-200J0D01*
G01X36463D01*
G03X36263Y45490I0J-200D01*
G01Y41700D01*
G02X36063Y41500I-200J0D01*
G01X23500D01*
G02X23300Y41700I0J200D01*
G01Y45464D01*
G02X23359Y45606I200J0D01*
G01X27894Y50141D01*
G02X28036Y50200I141J-141D01*
G01X47502D01*
G02X47627Y50156I0J-200D01*
G03Y54844I1873J2344D01*
G02X47502Y54800I-125J156D01*
G01X43700D01*
G02X43500Y55000I0J200D01*
G01Y56000D01*
G03X43492Y56128I-1000J0D01*
G01X43486Y56175D01*
X43516Y56263D01*
X45894Y58641D01*
G02X46036Y58700I141J-141D01*
G01X55701D01*
G02X55901Y58500I0J-200D01*
G01Y54030D01*
G03X56101Y53830I200J0D01*
G01X56229D01*
G02X56389Y53750I0J-200D01*
G01X56610Y53458D01*
X56627Y53366D01*
X56614Y53320D01*
G03X62386I2886J-820D01*
G01X62373Y53366D01*
X62390Y53458D01*
X62611Y53750D01*
G02X62771Y53830I160J-121D01*
G01X62962D01*
G03X63162Y54030I0J200D01*
G01Y58500D01*
G02X63362Y58700I200J0D01*
G01X65370D01*
G03X65511Y58758I0J200D01*
G01X70742Y63989D01*
G03X70800Y64130I-141J141D01*
G01Y75850D01*
G03X70742Y75992I-200J0D01*
G01X68059Y78675D01*
G02X68000Y78816I141J141D01*
G01Y82000D01*
G03X67791Y82612I-1000J0D01*
G01X67749Y82666D01*
Y82678D01*
X67739D01*
X67682Y82732D01*
G03X67000Y83000I-682J-732D01*
G01X45914D01*
G03X45263Y82759I0J-1000D01*
G03X45241Y82737I130J-152D01*
G03X45000Y82086I759J-651D01*
G01Y79414D01*
G03X45012Y79256I1000J0D01*
G01X45020Y79209D01*
X44990Y79118D01*
X38866Y72993D01*
X38768Y72965D01*
X38718Y72976D01*
G03X38500Y73000I-218J-976D01*
G01X33000D01*
G02X32203Y73396I0J1000D01*
G02X32162Y73517I159J121D01*
G01Y87500D01*
X32149D01*
X17914Y87500D01*
G03X17207Y87207I0J-1000D01*
G01X14793Y84793D01*
G03X14500Y84086I707J-707D01*
G01Y68689D01*
G02X14441Y68548I-200J0D01*
G01X13008Y67115D01*
G03X12950Y66974I141J-141D01*
G01Y58639D01*
G02X12891Y58498I-200J0D01*
G01X8008Y53615D01*
G03X7950Y53474I141J-141D01*
G01Y23428D01*
G03X8008Y23287I200J0D01*
G01X9441Y21854D01*
G02X9500Y21712I-141J-141D01*
G01Y21370D01*
G02X9300Y21170I-200J0D01*
G01X3700D01*
G02X3500Y21370I0J200D01*
G01Y91500D01*
G02X4500Y92500I1000J0D01*
G01X78303D01*
G02X79303Y91500I0J-1000D01*
G01Y3181D01*
G37*
%LPC*%
G75*
G54D22*
X57500Y7000D03*
%LPD*%
G75*
G54D10*
X13531Y17500D03*
X7468D03*
X28532Y76500D03*
X22468D03*
X28532Y69500D03*
X22468D03*
Y62500D03*
X28532D03*
Y83500D03*
X22468D03*
X53468Y57500D03*
X59532D03*
X53468Y64500D03*
X59532D03*
X73032Y18500D03*
X66968D03*
G54D20*
G01D02*
Y7531D01*
X67500Y7000D01*
G01X66968Y18500D02*
Y27681D01*
X66705Y27945D01*
G54D11*
X17500Y7000D03*
X27500D03*
X37500D03*
X47500D03*
X57500D03*
G54D21*
G01X77622Y118173D02*
G02X80803Y114992I0J-3181D01*
G01Y3181D01*
G02X77622Y0I-3181J0D01*
G01X5181D01*
G02X2000Y3181I0J3181D01*
G01Y114992D01*
G02X5181Y118173I3181J0D01*
G01X77622D01*
G01D02*
G02X80803Y114992I0J-3181D01*
G01Y3181D01*
G02X77622Y0I-3181J0D01*
G01X5181D01*
G02X2000Y3181I0J3181D01*
G01Y114992D01*
G02X5181Y118173I3181J0D01*
G01X77622D01*
G54D12*
G01X24500Y36968D02*
X32500D01*
G01X24500Y33438D02*
Y36968D01*
G01X32500D02*
X42264D01*
X42295Y37000D01*
G01X66705D02*
X42295D01*
X10000Y4000D03*
X7500Y8500D03*
X13531Y21370D03*
X7390Y13500D03*
X29000Y31500D03*
X24500Y33438D03*
X22000Y55000D03*
X18000Y76500D03*
X17838Y83338D03*
X18500Y62500D03*
X5700Y91000D03*
X10700D03*
X15700D03*
X20700D03*
X25700D03*
X30700D03*
X57500Y14000D03*
X49000D03*
X58000Y28000D03*
X33000Y31500D03*
X45000Y56000D03*
X49500Y47000D03*
X40000D03*
X49500Y57500D03*
X60000Y47000D03*
X32500D03*
X58000Y32500D03*
X52500D03*
X59500Y52500D03*
X49500D03*
X55700Y85500D03*
X45700D03*
X40500Y80000D03*
X35700Y75500D03*
Y85500D03*
X49500Y64500D03*
X32500Y69500D03*
X53500Y79500D03*
X58000D03*
X53500Y72000D03*
X35700Y91000D03*
X40700D03*
X45700D03*
X50700D03*
X55700D03*
X60700D03*
X77000Y5500D03*
Y11500D03*
Y18500D03*
X64500Y52500D03*
X63500Y64500D03*
X65700Y91000D03*
X70700D03*
X75700D03*
G54D13*
X24500Y43032D03*
Y36968D03*
X32500Y43032D03*
Y36968D03*
G54D14*
X42295Y37000D03*
G54D15*
X49216Y79500D03*
Y72000D03*
X63980Y79500D03*
Y72000D03*
G54D16*
X66705Y27945D03*
Y37000D03*
Y46055D03*
G54D17*
X67500Y7000D03*
G54D18*
G01X17500D02*
Y23000D01*
X13500Y27000D01*
Y51000D01*
X21000Y58500D01*
X38500D01*
X48500Y68500D01*
X55500D01*
X59500Y64500D01*
X59532D01*
G01X22000Y55000D02*
X16000Y49000D01*
Y28624D01*
X21500Y23124D01*
Y13000D01*
X27500Y7000D01*
G01X37500D02*
X25500Y19000D01*
Y23237D01*
X18500Y30237D01*
Y47500D01*
X26000Y55000D01*
X39000D01*
X45000Y61000D01*
X64500D01*
X68500Y65000D01*
Y74980D01*
X63980Y79500D01*
G01X49500Y52500D02*
X27000D01*
X21000Y46500D01*
Y32500D01*
X29500Y24000D01*
Y20500D01*
X37000Y13000D01*
X41500D01*
X47500Y7000D01*
G01X7390Y13500D02*
Y17421D01*
X7468Y17500D01*
G01X22468Y76500D02*
X18000D01*
G01X17838Y83338D02*
X22307D01*
X22468Y83500D01*
G01X49216Y79500D02*
X48626D01*
X35126Y66000D01*
X26000D01*
X22500Y69500D01*
X22468D01*
G01X28532Y62500D02*
X36500D01*
X46000Y72000D01*
X49216D01*
G01X59500Y52500D02*
Y57468D01*
X59532Y57500D01*
G01Y64500D02*
X63500D01*
G01X49216Y79500D02*
X53500D01*
G01X58000D02*
X61500Y76000D01*
Y74000D01*
X63500Y72000D01*
X63980D01*
G01X49216D02*
X53500D01*
G54D19*
G01X28532Y69500D02*
X28500D01*
X25000Y73000D01*
X19500D01*
X17500Y71000D01*
Y68000D01*
X15500Y66000D01*
Y57500D01*
X10500Y52500D01*
Y24402D01*
X13531Y21370D01*
G01Y17500D02*
Y21370D01*
G01X28532Y69500D02*
X32500D01*
G01X28532Y83500D02*
Y76500D01*
G01D02*
Y69500D01*
G01X18500Y62500D02*
X22468D01*
G01X57500Y7000D02*
Y11850D01*
G01X52650Y7000D02*
X57500D01*
G01D02*
X62350D01*
G01X58000Y28000D02*
X66650D01*
X66705Y27945D01*
G01X53468Y64500D02*
X49500D01*
M02*
