G04 ================== begin FILE IDENTIFICATION RECORD ==================*
G04 Layout Name:  G:/GitHub/ESP8266-Module/Hardware/PCB/ESP8266_Finish.brd*
G04 Film Name:    03_DRILL*
G04 File Format:  Gerber RS274X*
G04 File Origin:  Cadence Allegro 16.6-2015-S108*
G04 Origin Date:  Sat Feb 29 16:27:17 2020*
G04 *
G04 Layer:  MANUFACTURING/NCLEGEND-1-2*
G04 Layer:  BOARD GEOMETRY/OUTLINE*
G04 Layer:  BOARD GEOMETRY/DIMENSION*
G04 Layer:  MANUFACTURING/NCDRILL_LEGEND*
G04 Layer:  MANUFACTURING/NCDRILL_FIGURE*
G04 *
G04 Offset:    (0.000 0.000)*
G04 Mirror:    No*
G04 Mode:      Positive*
G04 Rotation:  0*
G04 FullContactRelief:  No*
G04 UndefLineWidth:     6.000*
G04 ================== end FILE IDENTIFICATION RECORD ====================*
%FSLAX25Y25*MOIN*%
%IR0*IPPOS*OFA0.00000B0.00000*MIA0B0*SFA1.00000B1.00000*%
%AMMACRO11*
1,1,.006,.006,0.0*
20,1,.006,.006,0.0,-.006,0.0,0.0*
1,1,.006,-.006,0.0*
1,1,.006,0.0,.006*
20,1,.006,0.0,.006,0.0,-.006,0.0*
1,1,.006,0.0,-.006*
%
%ADD11MACRO11*%
%AMMACRO10*
1,1,.006,.019685,.019685*
20,1,.006,.019685,.019685,.019685,-.019685,0.0*
1,1,.006,.019685,-.019685*
20,1,.006,.019685,-.019685,-.019685,-.019685,0.0*
1,1,.006,-.019685,-.019685*
20,1,.006,-.019685,-.019685,-.019685,.019685,0.0*
1,1,.006,-.019685,.019685*
20,1,.006,-.019685,.019685,.019685,.019685,0.0*
1,1,.006,.019685,.019685*
%
%ADD10MACRO10*%
%ADD12C,.006*%
G75*
%LPD*%
G75*
G54D10*
X17500Y7000D03*
X27500D03*
X37500D03*
X47500D03*
X57500D03*
X67500D03*
X204450Y5500D03*
G54D11*
X10000Y4000D03*
X7500Y8500D03*
X13531Y21370D03*
X7390Y13500D03*
X29000Y31500D03*
X24500Y33438D03*
X22000Y55000D03*
X18000Y76500D03*
X17838Y83338D03*
X18500Y62500D03*
X5700Y91000D03*
X10700D03*
X15700D03*
X20700D03*
X25700D03*
X30700D03*
X57500Y14000D03*
X49000D03*
X58000Y28000D03*
X33000Y31500D03*
X45000Y56000D03*
X49500Y47000D03*
X40000D03*
X49500Y57500D03*
X60000Y47000D03*
X32500D03*
X58000Y32500D03*
X52500D03*
X59500Y52500D03*
X49500D03*
X55700Y85500D03*
X45700D03*
X40500Y80000D03*
X35700Y75500D03*
Y85500D03*
X49500Y64500D03*
X32500Y69500D03*
X53500Y79500D03*
X58000D03*
X53500Y72000D03*
X35700Y91000D03*
X40700D03*
X45700D03*
X50700D03*
X55700D03*
X60700D03*
X77000Y5500D03*
Y11500D03*
Y18500D03*
X64500Y52500D03*
X63500Y64500D03*
X65700Y91000D03*
X70700D03*
X75700D03*
X204450Y30500D03*
G54D12*
G01X77622Y118173D02*
G02X80803Y114992I0J-3181D01*
G01Y3181D01*
G02X77622Y0I-3181J0D01*
G01X5181D01*
G02X2000Y3181I0J3181D01*
G01Y114992D01*
G02X5181Y118173I3181J0D01*
G01X77622D01*
G01D02*
G02X80803Y114992I0J-3181D01*
G01Y3181D01*
G02X77622Y0I-3181J0D01*
G01X5181D01*
G02X2000Y3181I0J3181D01*
G01Y114992D01*
G02X5181Y118173I3181J0D01*
G01X77622D01*
G01X159500Y-7000D02*
Y118000D01*
X643100D01*
Y-7000D01*
X159500D01*
G01Y18000D02*
X643100D01*
G01X170505Y49250D02*
Y61750D01*
X176395D01*
G01X174225Y55709D02*
X170505D01*
G01X183990Y61750D02*
X187710D01*
G01X185850D02*
Y49250D01*
G01X183990D02*
X187710D01*
G01X199180Y55500D02*
X202280D01*
Y51750D01*
X201350Y50500D01*
X200265Y49667D01*
X198715Y49250D01*
X197165Y49667D01*
X196080Y50500D01*
X195150Y51750D01*
X194530Y53208D01*
X194220Y54875D01*
Y56333D01*
X194530Y57583D01*
X195150Y59042D01*
X196080Y60292D01*
X197010Y61125D01*
X198250Y61750D01*
X199335D01*
X200575Y61333D01*
X201505Y60500D01*
G01X207240Y61750D02*
Y52792D01*
X207860Y50916D01*
X209100Y49667D01*
X210650Y49250D01*
X212200Y49667D01*
X213440Y50916D01*
X214060Y52792D01*
Y61750D01*
G01X219950Y49250D02*
Y61750D01*
X223825D01*
X225065Y61125D01*
X225840Y60292D01*
X226150Y58625D01*
X225840Y56958D01*
X224910Y55917D01*
X223825Y55291D01*
X219950D01*
G01X223825D02*
X226150Y49250D01*
G01X238550D02*
X232350D01*
Y61750D01*
X238550D01*
G01X236070Y55709D02*
X232350D01*
G01X159500Y43000D02*
X643100D01*
G01X159500Y68000D02*
X643100D01*
G01X159500Y93000D02*
X643100D01*
G01X249400Y68000D02*
Y-7000D01*
G01X242890Y99250D02*
Y111750D01*
X245990D01*
X247230Y111125D01*
X248160Y110292D01*
X248935Y109042D01*
X249555Y107583D01*
X249710Y105500D01*
X249555Y103416D01*
X248935Y101958D01*
X248160Y100708D01*
X247230Y99875D01*
X245990Y99250D01*
X242890D01*
G01X255600D02*
Y111750D01*
X259475D01*
X260715Y111125D01*
X261490Y110292D01*
X261800Y108625D01*
X261490Y106958D01*
X260560Y105917D01*
X259475Y105292D01*
X255600D01*
G01X259475D02*
X261800Y99250D01*
G01X269240Y111750D02*
X272960D01*
G01X271100D02*
Y99250D01*
G01X269240D02*
X272960D01*
G01X280400Y111750D02*
Y99250D01*
X286600D01*
G01X292800Y111750D02*
Y99250D01*
X299000D01*
G01X324110Y110708D02*
X323180Y111333D01*
X322095Y111750D01*
X320855D01*
X319460Y111125D01*
X318375Y110083D01*
X317600Y108833D01*
X316980Y106750D01*
X316825Y104875D01*
X317135Y103000D01*
X317600Y101750D01*
X318530Y100500D01*
X319615Y99667D01*
X320700Y99250D01*
X321785D01*
X322870Y99667D01*
X323800Y100291D01*
X324575Y101125D01*
G01X329845Y99250D02*
Y111750D01*
G01X336355D02*
Y99250D01*
G01Y105500D02*
X329845D01*
G01X341625Y99250D02*
X345500Y111750D01*
X349375Y99250D01*
G01X347980Y103625D02*
X343020D01*
G01X354800Y99250D02*
Y111750D01*
X358675D01*
X359915Y111125D01*
X360690Y110292D01*
X361000Y108625D01*
X360690Y106958D01*
X359760Y105917D01*
X358675Y105292D01*
X354800D01*
G01X358675D02*
X361000Y99250D01*
G01X370300Y111750D02*
Y99250D01*
G01X366735Y111750D02*
X373865D01*
G01X382700Y98833D02*
X382390Y99042D01*
Y99458D01*
X382700Y99667D01*
X383010Y99458D01*
Y99042D01*
X382700Y98833D01*
G01Y104458D02*
X382390Y104667D01*
Y105083D01*
X382700Y105292D01*
X383010Y105083D01*
Y104667D01*
X382700Y104458D01*
G01X407500Y111750D02*
Y99250D01*
G01X403935Y111750D02*
X411065D01*
G01X419900Y99250D02*
X418660Y99458D01*
X417575Y100291D01*
X416645Y101542D01*
X416025Y103000D01*
X415715Y104667D01*
Y106333D01*
X416025Y108000D01*
X416645Y109458D01*
X417575Y110708D01*
X418660Y111542D01*
X419900Y111750D01*
X421140Y111542D01*
X422225Y110708D01*
X423155Y109458D01*
X423775Y108000D01*
X424085Y106333D01*
Y104667D01*
X423775Y103000D01*
X423155Y101542D01*
X422225Y100291D01*
X421140Y99458D01*
X419900Y99250D01*
G01X429200D02*
Y111750D01*
X432920D01*
X434160Y111125D01*
X435090Y109667D01*
X435400Y108000D01*
X435090Y106333D01*
X434315Y105083D01*
X432920Y104458D01*
X429200D01*
G01X457100Y111750D02*
Y99250D01*
G01X454930Y107583D02*
X459270D01*
G01X469500Y99250D02*
X468570Y99458D01*
X467640Y100291D01*
X467020Y101750D01*
X466710Y103416D01*
X467020Y105083D01*
X467640Y106542D01*
X468570Y107375D01*
X469500Y107583D01*
X470430Y107375D01*
X471360Y106542D01*
X471980Y105083D01*
X472135Y103416D01*
X471980Y101750D01*
X471360Y100291D01*
X470430Y99458D01*
X469500Y99250D01*
G01X495540Y105917D02*
X496160Y106542D01*
X496625Y107583D01*
X496935Y109042D01*
X496625Y110292D01*
X496005Y111125D01*
X494920Y111750D01*
X490735D01*
Y99250D01*
X495850D01*
X496935Y100083D01*
X497555Y101333D01*
X497865Y102792D01*
X497555Y104250D01*
X496625Y105500D01*
X495540Y105917D01*
X490735D01*
G01X506700Y99250D02*
X505460Y99458D01*
X504375Y100291D01*
X503445Y101542D01*
X502825Y103000D01*
X502515Y104667D01*
Y106333D01*
X502825Y108000D01*
X503445Y109458D01*
X504375Y110708D01*
X505460Y111542D01*
X506700Y111750D01*
X507940Y111542D01*
X509025Y110708D01*
X509955Y109458D01*
X510575Y108000D01*
X510885Y106333D01*
Y104667D01*
X510575Y103000D01*
X509955Y101542D01*
X509025Y100291D01*
X507940Y99458D01*
X506700Y99250D01*
G01X519100Y111750D02*
Y99250D01*
G01X515535Y111750D02*
X522665D01*
G01X531500D02*
Y99250D01*
G01X527935Y111750D02*
X535065D01*
G01X543900Y99250D02*
X542660Y99458D01*
X541575Y100291D01*
X540645Y101542D01*
X540025Y103000D01*
X539715Y104667D01*
Y106333D01*
X540025Y108000D01*
X540645Y109458D01*
X541575Y110708D01*
X542660Y111542D01*
X543900Y111750D01*
X545140Y111542D01*
X546225Y110708D01*
X547155Y109458D01*
X547775Y108000D01*
X548085Y106333D01*
Y104667D01*
X547775Y103000D01*
X547155Y101542D01*
X546225Y100291D01*
X545140Y99458D01*
X543900Y99250D01*
G01X552270D02*
Y111750D01*
X556300Y101333D01*
X560330Y111750D01*
Y99250D01*
G01X273425Y74250D02*
X277300Y86750D01*
X281175Y74250D01*
G01X279780Y78625D02*
X274820D01*
G01X286600Y86750D02*
Y74250D01*
X292800D01*
G01X299000Y86750D02*
Y74250D01*
X305200D01*
G01X323490Y86750D02*
Y77792D01*
X324110Y75916D01*
X325350Y74667D01*
X326900Y74250D01*
X328450Y74667D01*
X329690Y75916D01*
X330310Y77792D01*
Y86750D01*
G01X335735Y74250D02*
Y86750D01*
X342865Y74250D01*
Y86750D01*
G01X349840D02*
X353560D01*
G01X351700D02*
Y74250D01*
G01X349840D02*
X353560D01*
G01X364100Y86750D02*
Y74250D01*
G01X360535Y86750D02*
X367665D01*
G01X373245Y75916D02*
X374485Y74875D01*
X375880Y74250D01*
X377120D01*
X378360Y74875D01*
X379290Y75916D01*
X379755Y77375D01*
X379445Y78833D01*
X378670Y80083D01*
X377275Y80917D01*
X375415Y81333D01*
X374330Y82166D01*
X373865Y83625D01*
X374175Y85083D01*
X374950Y86125D01*
X376035Y86750D01*
X377120D01*
X378205Y86333D01*
X379135Y85292D01*
G01X397425Y74250D02*
X401300Y86750D01*
X405175Y74250D01*
G01X403780Y78625D02*
X398820D01*
G01X410600Y74250D02*
Y86750D01*
X414475D01*
X415715Y86125D01*
X416490Y85292D01*
X416800Y83625D01*
X416490Y81958D01*
X415560Y80917D01*
X414475Y80292D01*
X410600D01*
G01X414475D02*
X416800Y74250D01*
G01X429200D02*
X423000D01*
Y86750D01*
X429200D01*
G01X426720Y80708D02*
X423000D01*
G01X449040Y86750D02*
X452760D01*
G01X450900D02*
Y74250D01*
G01X449040D02*
X452760D01*
G01X459735D02*
Y86750D01*
X466865Y74250D01*
Y86750D01*
G01X484070Y74250D02*
Y86750D01*
X488100Y76333D01*
X492130Y86750D01*
Y74250D01*
G01X498640Y86750D02*
X502360D01*
G01X500500D02*
Y74250D01*
G01X498640D02*
X502360D01*
G01X509800Y86750D02*
Y74250D01*
X516000D01*
G01X522045Y75916D02*
X523285Y74875D01*
X524680Y74250D01*
X525920D01*
X527160Y74875D01*
X528090Y75916D01*
X528555Y77375D01*
X528245Y78833D01*
X527470Y80083D01*
X526075Y80917D01*
X524215Y81333D01*
X523130Y82166D01*
X522665Y83625D01*
X522975Y85083D01*
X523750Y86125D01*
X524835Y86750D01*
X525920D01*
X527005Y86333D01*
X527935Y85292D01*
G01X315740Y1750D02*
X316670Y291D01*
X317910Y-542D01*
X319305Y-750D01*
X320545Y-542D01*
X321785Y500D01*
X322560Y1750D01*
X322715Y3000D01*
X322405Y4458D01*
X321320Y5500D01*
X320235Y5917D01*
X318840D01*
G01X320235D02*
X321165Y6542D01*
X321940Y7583D01*
X322250Y8833D01*
X321940Y10083D01*
X321165Y11125D01*
X319770Y11750D01*
X318375Y11542D01*
X316980Y10708D01*
G01X328915Y708D02*
X330000Y-333D01*
X331240Y-750D01*
X332480Y-333D01*
X333565Y916D01*
X334340Y2792D01*
X334650Y4667D01*
Y6958D01*
X334340Y8833D01*
X333565Y10500D01*
X332635Y11333D01*
X331550Y11750D01*
X330310Y11333D01*
X329380Y10500D01*
X328760Y9250D01*
X328450Y7583D01*
X328760Y6125D01*
X329535Y4667D01*
X330465Y3833D01*
X331550Y3625D01*
X332790Y4041D01*
X333720Y5083D01*
X334650Y6958D01*
G01X343950Y-1167D02*
X343640Y-958D01*
Y-542D01*
X343950Y-333D01*
X344260Y-542D01*
Y-958D01*
X343950Y-1167D01*
G01X352940Y1750D02*
X353870Y291D01*
X355110Y-542D01*
X356505Y-750D01*
X357745Y-542D01*
X358985Y500D01*
X359760Y1750D01*
X359915Y3000D01*
X359605Y4458D01*
X358520Y5500D01*
X357435Y5917D01*
X356040D01*
G01X357435D02*
X358365Y6542D01*
X359140Y7583D01*
X359450Y8833D01*
X359140Y10083D01*
X358365Y11125D01*
X356970Y11750D01*
X355575Y11542D01*
X354180Y10708D01*
G01X368440Y-750D02*
X368750Y1958D01*
X369215Y4250D01*
X369835Y6333D01*
X370610Y8625D01*
X371850Y11750D01*
X365650D01*
G01X325350Y24250D02*
Y36750D01*
X323490Y34250D01*
G01Y24250D02*
X327210D01*
G01X334805Y34667D02*
X335735Y35916D01*
X336820Y36542D01*
X338060Y36750D01*
X339610Y36333D01*
X340695Y35292D01*
X341005Y34042D01*
X340850Y32791D01*
X340230Y31750D01*
X337130Y29667D01*
X335735Y28208D01*
X334805Y26125D01*
X334495Y24250D01*
X341005D01*
G01X350150Y23833D02*
X349840Y24042D01*
Y24458D01*
X350150Y24667D01*
X350460Y24458D01*
Y24042D01*
X350150Y23833D01*
G01X362550Y36750D02*
X361310Y36333D01*
X360380Y35292D01*
X359760Y34042D01*
X359295Y32375D01*
X359140Y30500D01*
X359295Y28625D01*
X359760Y26958D01*
X360380Y25708D01*
X361310Y24667D01*
X362550Y24250D01*
X363790Y24667D01*
X364720Y25708D01*
X365340Y26958D01*
X365805Y28625D01*
X365960Y30500D01*
X365805Y32375D01*
X365340Y34042D01*
X364720Y35292D01*
X363790Y36333D01*
X362550Y36750D01*
G01X322095Y50916D02*
X323335Y49875D01*
X324730Y49250D01*
X325970D01*
X327210Y49875D01*
X328140Y50916D01*
X328605Y52375D01*
X328295Y53833D01*
X327520Y55083D01*
X326125Y55917D01*
X324265Y56333D01*
X323180Y57166D01*
X322715Y58625D01*
X323025Y60083D01*
X323800Y61125D01*
X324885Y61750D01*
X325970D01*
X327055Y61333D01*
X327985Y60292D01*
G01X335890Y61750D02*
X339610D01*
G01X337750D02*
Y49250D01*
G01X335890D02*
X339610D01*
G01X347205Y61750D02*
X353095D01*
X347205Y49250D01*
X353095D01*
G01X365650D02*
X359450D01*
Y61750D01*
X365650D01*
G01X363170Y55709D02*
X359450D01*
G01X438500Y68000D02*
Y-7000D01*
G01X467950Y-750D02*
Y11750D01*
X471670D01*
X472910Y11125D01*
X473840Y9667D01*
X474150Y8000D01*
X473840Y6333D01*
X473065Y5083D01*
X471670Y4458D01*
X467950D01*
G01X480350Y11750D02*
Y-750D01*
X486550D01*
G01X491975D02*
X495850Y11750D01*
X499725Y-750D01*
G01X498330Y3625D02*
X493370D01*
G01X508250Y11750D02*
Y-750D01*
G01X504685Y11750D02*
X511815D01*
G01X523750Y-750D02*
X517550D01*
Y11750D01*
X523750D01*
G01X521270Y5708D02*
X517550D01*
G01X529640Y-750D02*
Y11750D01*
X532740D01*
X533980Y11125D01*
X534910Y10292D01*
X535685Y9042D01*
X536305Y7583D01*
X536460Y5500D01*
X536305Y3416D01*
X535685Y1958D01*
X534910Y708D01*
X533980Y-125D01*
X532740Y-750D01*
X529640D01*
G01X467950Y24250D02*
Y36750D01*
X471670D01*
X472910Y36125D01*
X473840Y34667D01*
X474150Y33000D01*
X473840Y31333D01*
X473065Y30083D01*
X471670Y29458D01*
X467950D01*
G01X480350Y36750D02*
Y24250D01*
X486550D01*
G01X491975D02*
X495850Y36750D01*
X499725Y24250D01*
G01X498330Y28625D02*
X493370D01*
G01X508250Y36750D02*
Y24250D01*
G01X504685Y36750D02*
X511815D01*
G01X523750Y24250D02*
X517550D01*
Y36750D01*
X523750D01*
G01X521270Y30708D02*
X517550D01*
G01X529640Y24250D02*
Y36750D01*
X532740D01*
X533980Y36125D01*
X534910Y35292D01*
X535685Y34042D01*
X536305Y32583D01*
X536460Y30500D01*
X536305Y28416D01*
X535685Y26958D01*
X534910Y25708D01*
X533980Y24875D01*
X532740Y24250D01*
X529640D01*
G01X467950Y49250D02*
Y61750D01*
X471670D01*
X472910Y61125D01*
X473840Y59667D01*
X474150Y58000D01*
X473840Y56333D01*
X473065Y55083D01*
X471670Y54458D01*
X467950D01*
G01X480350Y61750D02*
Y49250D01*
X486550D01*
G01X491975D02*
X495850Y61750D01*
X499725Y49250D01*
G01X498330Y53625D02*
X493370D01*
G01X508250Y61750D02*
Y49250D01*
G01X504685Y61750D02*
X511815D01*
G01X523750Y49250D02*
X517550D01*
Y61750D01*
X523750D01*
G01X521270Y55709D02*
X517550D01*
G01X529640Y49250D02*
Y61750D01*
X532740D01*
X533980Y61125D01*
X534910Y60292D01*
X535685Y59042D01*
X536305Y57583D01*
X536460Y55500D01*
X536305Y53416D01*
X535685Y51958D01*
X534910Y50708D01*
X533980Y49875D01*
X532740Y49250D01*
X529640D01*
G01X565600Y68000D02*
Y-7000D01*
G01X601405Y4458D02*
X602490Y5917D01*
X603420Y6750D01*
X604660Y7167D01*
X605745Y6750D01*
X606520Y5917D01*
X607140Y4667D01*
X607295Y3208D01*
X607140Y1958D01*
X606520Y708D01*
X605590Y-333D01*
X604505Y-750D01*
X603265Y-333D01*
X602180Y916D01*
X601560Y2792D01*
X601405Y4875D01*
X601715Y7583D01*
X602180Y9042D01*
X602955Y10500D01*
X604040Y11542D01*
X605125Y11750D01*
X606210Y11333D01*
X606985Y10292D01*
G01X594740Y26125D02*
X595670Y25083D01*
X596755Y24458D01*
X598150Y24250D01*
X599545Y24667D01*
X600630Y25500D01*
X601405Y26958D01*
X601560Y28625D01*
X601250Y30292D01*
X600475Y31333D01*
X599390Y32167D01*
X598305Y32375D01*
X597220Y32167D01*
X595825Y31333D01*
X596290Y36750D01*
X600475D01*
G01X612410Y24250D02*
Y36750D01*
X606675Y27792D01*
X614425D01*
G01X591950Y49250D02*
X590710Y49458D01*
X589625Y50291D01*
X588695Y51542D01*
X588075Y53000D01*
X587765Y54667D01*
Y56333D01*
X588075Y58000D01*
X588695Y59458D01*
X589625Y60708D01*
X590710Y61542D01*
X591950Y61750D01*
X593190Y61542D01*
X594275Y60708D01*
X595205Y59458D01*
X595825Y58000D01*
X596135Y56333D01*
Y54667D01*
X595825Y53000D01*
X595205Y51542D01*
X594275Y50291D01*
X593190Y49458D01*
X591950Y49250D01*
G01X593190Y52583D02*
X595050Y49250D01*
G01X604350Y61750D02*
Y49250D01*
G01X600785Y61750D02*
X607915D01*
G01X616750Y49250D02*
Y54875D01*
X613650Y61750D01*
G01X619850D02*
X616750Y54875D01*
M02*
