G04 ================== begin FILE IDENTIFICATION RECORD ==================*
G04 Layout Name:  G:/GitHub/ESP8266-Module/Hardware/PCB/ESP8266_Finish.brd*
G04 Film Name:    04_SILK_TOP*
G04 File Format:  Gerber RS274X*
G04 File Origin:  Cadence Allegro 16.6-2015-S108*
G04 Origin Date:  Sat Feb 29 16:27:17 2020*
G04 *
G04 Layer:  BOARD GEOMETRY/OUTLINE*
G04 Layer:  PACKAGE GEOMETRY/SILKSCREEN_TOP*
G04 Layer:  BOARD GEOMETRY/SILKSCREEN_TOP*
G04 Layer:  REF DES/SILKSCREEN_TOP*
G04 *
G04 Offset:    (0.000 0.000)*
G04 Mirror:    No*
G04 Mode:      Positive*
G04 Rotation:  0*
G04 FullContactRelief:  No*
G04 UndefLineWidth:     6.000*
G04 ================== end FILE IDENTIFICATION RECORD ====================*
%FSLAX25Y25*MOIN*%
%IR0*IPPOS*OFA0.00000B0.00000*MIA0B0*SFA1.00000B1.00000*%
%ADD10C,.006*%
%ADD11C,.007874*%
G75*
%LPD*%
G75*
G36*
G01X10106Y18681D02*
Y16319D01*
X11287Y17500D01*
X10106Y18681D01*
G37*
G54D10*
G01X24067Y11000D02*
Y14000D01*
X25108D01*
X25442Y13850D01*
X25650Y13650D01*
X25733Y13250D01*
X25650Y12850D01*
X25400Y12600D01*
X25108Y12450D01*
X24067D01*
G01X25108D02*
X25733Y11000D01*
G01X27025Y11400D02*
X27358Y11150D01*
X27733Y11000D01*
X28067D01*
X28400Y11150D01*
X28650Y11400D01*
X28775Y11750D01*
X28692Y12100D01*
X28483Y12400D01*
X28108Y12600D01*
X27608Y12700D01*
X27317Y12900D01*
X27192Y13250D01*
X27275Y13600D01*
X27483Y13850D01*
X27775Y14000D01*
X28067D01*
X28358Y13900D01*
X28608Y13650D01*
G01X30900Y14000D02*
Y11000D01*
G01X29942Y14000D02*
X31858D01*
G01X14400D02*
X15400D01*
G01X14900D02*
Y11000D01*
G01X14400D02*
X15400D01*
G01X17900D02*
X17567Y11050D01*
X17275Y11250D01*
X17025Y11550D01*
X16858Y11900D01*
X16775Y12300D01*
Y12700D01*
X16858Y13100D01*
X17025Y13450D01*
X17275Y13750D01*
X17567Y13950D01*
X17900Y14000D01*
X18233Y13950D01*
X18525Y13750D01*
X18775Y13450D01*
X18942Y13100D01*
X19025Y12700D01*
Y12300D01*
X18942Y11900D01*
X18775Y11550D01*
X18525Y11250D01*
X18233Y11050D01*
X17900Y11000D01*
G01X20900Y14000D02*
X20567Y13900D01*
X20317Y13650D01*
X20150Y13350D01*
X20025Y12950D01*
X19983Y12500D01*
X20025Y12050D01*
X20150Y11650D01*
X20317Y11350D01*
X20567Y11100D01*
X20900Y11000D01*
X21233Y11100D01*
X21483Y11350D01*
X21650Y11650D01*
X21775Y12050D01*
X21817Y12500D01*
X21775Y12950D01*
X21650Y13350D01*
X21483Y13650D01*
X21233Y13900D01*
X20900Y14000D01*
G01X4583Y10500D02*
Y13500D01*
X5417D01*
X5750Y13350D01*
X6000Y13150D01*
X6208Y12850D01*
X6375Y12500D01*
X6417Y12000D01*
X6375Y11500D01*
X6208Y11150D01*
X6000Y10850D01*
X5750Y10650D01*
X5417Y10500D01*
X4583D01*
G01X7583Y11100D02*
X7833Y10750D01*
X8167Y10550D01*
X8542Y10500D01*
X8875Y10550D01*
X9208Y10800D01*
X9417Y11100D01*
X9458Y11400D01*
X9375Y11750D01*
X9083Y12000D01*
X8792Y12100D01*
X8417D01*
G01X8792D02*
X9042Y12250D01*
X9250Y12500D01*
X9333Y12800D01*
X9250Y13100D01*
X9042Y13350D01*
X8667Y13500D01*
X8292Y13450D01*
X7917Y13250D01*
G01X55150Y12500D02*
X55983D01*
Y11600D01*
X55733Y11300D01*
X55442Y11100D01*
X55025Y11000D01*
X54608Y11100D01*
X54317Y11300D01*
X54067Y11600D01*
X53900Y11950D01*
X53817Y12350D01*
Y12700D01*
X53900Y13000D01*
X54067Y13350D01*
X54317Y13650D01*
X54567Y13850D01*
X54900Y14000D01*
X55192D01*
X55525Y13900D01*
X55775Y13700D01*
G01X56942Y11000D02*
Y14000D01*
X58858Y11000D01*
Y14000D01*
G01X59983Y11000D02*
Y14000D01*
X60817D01*
X61150Y13850D01*
X61400Y13650D01*
X61608Y13350D01*
X61775Y13000D01*
X61817Y12500D01*
X61775Y12000D01*
X61608Y11650D01*
X61400Y11350D01*
X61150Y11150D01*
X60817Y11000D01*
X59983D01*
G01X46200Y14000D02*
Y11000D01*
G01X45242Y14000D02*
X47158D01*
G01X48325Y11000D02*
X50075Y14000D01*
G01X48325D02*
X50075Y11000D01*
G01X35367D02*
Y14000D01*
X36408D01*
X36742Y13850D01*
X36950Y13650D01*
X37033Y13250D01*
X36950Y12850D01*
X36700Y12600D01*
X36408Y12450D01*
X35367D01*
G01X36408D02*
X37033Y11000D01*
G01X38325D02*
X40075Y14000D01*
G01X38325D02*
X40075Y11000D01*
G01X65283Y11450D02*
X65533Y11200D01*
X65825Y11050D01*
X66200Y11000D01*
X66575Y11100D01*
X66867Y11300D01*
X67075Y11650D01*
X67117Y12050D01*
X67033Y12450D01*
X66825Y12700D01*
X66533Y12900D01*
X66242Y12950D01*
X65950Y12900D01*
X65575Y12700D01*
X65700Y14000D01*
X66825D01*
G01X68158D02*
X69200Y11000D01*
X70242Y14000D01*
G01X77622Y118173D02*
G02X80803Y114992I0J-3181D01*
G01Y3181D01*
G02X77622Y0I-3181J0D01*
G01X5181D01*
G02X2000Y3181I0J3181D01*
G01Y114992D01*
G02X5181Y118173I3181J0D01*
G01X77622D01*
G01D02*
G02X80803Y114992I0J-3181D01*
G01Y3181D01*
G02X77622Y0I-3181J0D01*
G01X5181D01*
G02X2000Y3181I0J3181D01*
G01Y114992D01*
G02X5181Y118173I3181J0D01*
G01X77622D01*
G54D11*
G01X73291Y21134D02*
Y115622D01*
X9512D01*
Y21134D01*
X73291D01*
G01X6000Y21216D02*
Y23184D01*
G01X4916Y22100D02*
X6884D01*
G01X16406Y14744D02*
Y20256D01*
X13650D01*
G01X7350D02*
X4594D01*
Y14744D01*
X7350D01*
G01X11500Y13000D02*
Y1000D01*
X73500D01*
G01D02*
Y13000D01*
M02*
