  0
SECTION
  2
HEADER
  9
$ACADVER
  1
AC1009
  9
$INSBASE
 10
0.000000
 20
0.000000
  9
$LIMMIN
 10
-98.984003
 20
-99.492003
  9
$LIMMAX
 10
434.415997
 20
332.307997
  9
$EXTMIN
 10
-98.984003
 20
-99.492003
  9
$EXTMAX
 10
434.415997
 20
332.307997
  9
$ATTMODE
 70
0
  9
$LUNITS
 70
2
  9
$LUPREC
 70
3
  9
$THICKNESS
 40
0.264160
  0
ENDSEC
  0
SECTION
  2
TABLES
  0
TABLE
  2
LTYPE
 70
1
  0
LTYPE
  3
Solid Line
  2
CONTINUOUS
 70
0
 72
65
 73
0
 40
0.000000
  0
ENDTAB
  0
TABLE
  2
LAYER
 70
6
  0
LAYER
  2
BG_OUTLINE
 70
0
 62
6
  6
CONTINUOUS
  0
LAYER
  2
BO_SILKSCREEN_TOP
 70
0
 62
7
  6
CONTINUOUS
  0
LAYER
  2
PG_SILKSCREEN_TOP
 70
0
 62
7
  6
CONTINUOUS
  0
LAYER
  2
RE_SILKSCREEN_TOP
 70
0
 62
7
  6
CONTINUOUS
  0
LAYER
  2
RE_DISPLAY_TOP
 70
0
 62
142
  6
CONTINUOUS
  0
LAYER
  2
PIN_TOP
 70
0
 62
12
  6
CONTINUOUS
  0
ENDTAB
  0
TABLE
  2
STYLE
 70
1
  0
STYLE
  2
STANDARD
 70
0
 40
0.000000
 41
1.000000
 50
0.000000
 71
0
 42
0.200000
  3
txt
  0
ENDTAB
  0
ENDSEC
  0
SECTION
  2
BLOCKS
  0
BLOCK
  8
0
  2
FIGURE_CIRCLE
 70
0
 10
0.000000
 20
0.000000
  0
CIRCLE
  8
0
 10
0.000000
 20
0.000000
 40
0.500000
  0
ENDBLK
  0
BLOCK
  8
0
  2
FIGURE_SQUARE
 70
0
 10
0.000000
 20
0.000000
  0
POLYLINE
  8
0
 66
1
 70
1
 40
0.000000
 41
0.000000
 39
0.000000
  0
VERTEX
  8
0
 10
-0.500000
 20
-0.500000
 40
0.000000
 41
0.000000
 42
0.000000
  0
VERTEX
  8
0
 10
-0.500000
 20
0.500000
 40
0.000000
 41
0.000000
 42
0.000000
  0
VERTEX
  8
0
 10
0.500000
 20
0.500000
 40
0.000000
 41
0.000000
 42
0.000000
  0
VERTEX
  8
0
 10
0.500000
 20
-0.500000
 40
0.000000
 41
0.000000
 42
0.000000
  0
SEQEND
  0
ENDBLK
  0
BLOCK
  8
0
  2
FIGURE_HEX
 70
0
 10
0.000000
 20
0.000000
  0
POLYLINE
  8
0
 66
1
 70
1
 40
0.000000
 41
0.000000
 39
0.000000
  0
VERTEX
  8
0
 10
-0.500000
 20
0.000000
 40
0.000000
 41
0.000000
 42
0.000000
  0
VERTEX
  8
0
 10
-0.250000
 20
0.500000
 40
0.000000
 41
0.000000
 42
0.000000
  0
VERTEX
  8
0
 10
0.250000
 20
0.500000
 40
0.000000
 41
0.000000
 42
0.000000
  0
VERTEX
  8
0
 10
0.500000
 20
0.000000
 40
0.000000
 41
0.000000
 42
0.000000
  0
VERTEX
  8
0
 10
0.250000
 20
-0.500000
 40
0.000000
 41
0.000000
 42
0.000000
  0
VERTEX
  8
0
 10
-0.250000
 20
-0.500000
 40
0.000000
 41
0.000000
 42
0.000000
  0
SEQEND
  0
ENDBLK
  0
BLOCK
  8
0
  2
FIGURE_OCT
 70
0
 10
0.000000
 20
0.000000
  0
POLYLINE
  8
0
 66
1
 70
1
 40
0.000000
 41
0.000000
 39
0.000000
  0
VERTEX
  8
0
 10
-0.500000
 20
-0.207100
 40
0.000000
 41
0.000000
 42
0.000000
  0
VERTEX
  8
0
 10
-0.500000
 20
0.207100
 40
0.000000
 41
0.000000
 42
0.000000
  0
VERTEX
  8
0
 10
-0.207100
 20
0.500000
 40
0.000000
 41
0.000000
 42
0.000000
  0
VERTEX
  8
0
 10
0.207100
 20
0.500000
 40
0.000000
 41
0.000000
 42
0.000000
  0
VERTEX
  8
0
 10
0.500000
 20
0.207100
 40
0.000000
 41
0.000000
 42
0.000000
  0
VERTEX
  8
0
 10
0.500000
 20
-0.207100
 40
0.000000
 41
0.000000
 42
0.000000
  0
VERTEX
  8
0
 10
0.207100
 20
-0.500000
 40
0.000000
 41
0.000000
 42
0.000000
  0
VERTEX
  8
0
 10
-0.207100
 20
-0.500000
 40
0.000000
 41
0.000000
 42
0.000000
  0
SEQEND
  0
ENDBLK
  0
BLOCK
  8
0
  2
FIGURE_OBLONG
 70
0
 10
0.000000
 20
0.000000
  0
POLYLINE
  8
0
 66
1
 70
1
 40
0.000000
 41
0.000000
 39
0.000000
  0
VERTEX
  8
0
 10
-0.500000
 20
-0.125000
 40
0.000000
 41
0.000000
 42
0.000000
  0
VERTEX
  8
0
 10
-0.500000
 20
0.125000
 40
0.000000
 41
0.000000
 42
0.000000
  0
VERTEX
  8
0
 10
-0.416000
 20
0.375000
 40
0.000000
 41
0.000000
 42
0.000000
  0
VERTEX
  8
0
 10
-0.250000
 20
0.500000
 40
0.000000
 41
0.000000
 42
0.000000
  0
VERTEX
  8
0
 10
0.250000
 20
0.500000
 40
0.000000
 41
0.000000
 42
0.000000
  0
VERTEX
  8
0
 10
0.416000
 20
0.375000
 40
0.000000
 41
0.000000
 42
0.000000
  0
VERTEX
  8
0
 10
0.500000
 20
0.125000
 40
0.000000
 41
0.000000
 42
0.000000
  0
VERTEX
  8
0
 10
0.500000
 20
-0.125000
 40
0.000000
 41
0.000000
 42
0.000000
  0
VERTEX
  8
0
 10
0.416000
 20
-0.375000
 40
0.000000
 41
0.000000
 42
0.000000
  0
VERTEX
  8
0
 10
0.250000
 20
-0.500000
 40
0.000000
 41
0.000000
 42
0.000000
  0
VERTEX
  8
0
 10
-0.250000
 20
-0.500000
 40
0.000000
 41
0.000000
 42
0.000000
  0
VERTEX
  8
0
 10
-0.416000
 20
-0.375000
 40
0.000000
 41
0.000000
 42
0.000000
  0
SEQEND
  0
ENDBLK
  0
BLOCK
  8
0
  2
FIGURE_TRI
 70
0
 10
0.000000
 20
0.000000
  0
POLYLINE
  8
0
 66
1
 70
1
 40
0.000000
 41
0.000000
 39
0.000000
  0
VERTEX
  8
0
 10
-0.500000
 20
-0.500000
 40
0.000000
 41
0.000000
 42
0.000000
  0
VERTEX
  8
0
 10
0.000000
 20
0.500000
 40
0.000000
 41
0.000000
 42
0.000000
  0
VERTEX
  8
0
 10
0.500000
 20
-0.500000
 40
0.000000
 41
0.000000
 42
0.000000
  0
SEQEND
  0
ENDBLK
  0
BLOCK
  8
0
  2
FIGURE_CROSS
 70
0
 10
0.000000
 20
0.000000
  0
POLYLINE
  8
0
 66
1
 70
0
 40
0.000000
 41
0.000000
 39
0.000000
  0
VERTEX
  8
0
 10
-0.500000
 20
0.000000
 40
0.000000
 41
0.000000
 42
0.000000
  0
VERTEX
  8
0
 10
0.500000
 20
0.000000
 40
0.000000
 41
0.000000
 42
0.000000
  0
SEQEND
  0
POLYLINE
  8
0
 66
1
 70
0
 40
0.000000
 41
0.000000
 39
0.000000
  0
VERTEX
  8
0
 10
0.000000
 20
0.500000
 40
0.000000
 41
0.000000
 42
0.000000
  0
VERTEX
  8
0
 10
0.000000
 20
-0.500000
 40
0.000000
 41
0.000000
 42
0.000000
  0
SEQEND
  0
ENDBLK
  0
BLOCK
  8
0
  2
FIGURE_DIAMOND
 70
0
 10
0.000000
 20
0.000000
  0
POLYLINE
  8
0
 66
1
 70
1
 40
0.000000
 41
0.000000
 39
0.000000
  0
VERTEX
  8
0
 10
-0.500000
 20
0.000000
 40
0.000000
 41
0.000000
 42
0.000000
  0
VERTEX
  8
0
 10
0.000000
 20
0.500000
 40
0.000000
 41
0.000000
 42
0.000000
  0
VERTEX
  8
0
 10
0.500000
 20
0.000000
 40
0.000000
 41
0.000000
 42
0.000000
  0
VERTEX
  8
0
 10
0.000000
 20
-0.500000
 40
0.000000
 41
0.000000
 42
0.000000
  0
SEQEND
  0
ENDBLK
  0
ENDSEC
  0
SECTION
  2
ENTITIES
  0
POLYLINE
  8
PIN_TOP
 66
1
 70
1
 40
0.000000
 41
0.000000
 39
0.000000
  0
VERTEX
  8
PIN_TOP
 10
17.944998
 20
2.577998
 40
0.000000
 41
0.000000
 42
0.000000
  0
VERTEX
  8
PIN_TOP
 10
17.944998
 20
0.978002
 40
0.000000
 41
0.000000
 42
0.000000
  0
VERTEX
  8
PIN_TOP
 10
16.345002
 20
0.978002
 40
0.000000
 41
0.000000
 42
0.000000
  0
VERTEX
  8
PIN_TOP
 10
16.345002
 20
2.577998
 40
0.000000
 41
0.000000
 42
0.000000
  0
SEQEND
  0
CIRCLE
  8
PIN_TOP
 10
14.605000
 20
1.778000
 40
0.799998
  0
CIRCLE
  8
PIN_TOP
 10
12.065000
 20
1.778000
 40
0.799998
  0
CIRCLE
  8
PIN_TOP
 10
9.525000
 20
1.778000
 40
0.799998
  0
CIRCLE
  8
PIN_TOP
 10
6.985000
 20
1.778000
 40
0.799998
  0
CIRCLE
  8
PIN_TOP
 10
4.445000
 20
1.778000
 40
0.799998
  0
POLYLINE
  8
PG_SILKSCREEN_TOP
 66
1
 70
0
 40
0.000000
 41
0.000000
 39
0.000000
  0
VERTEX
  8
PG_SILKSCREEN_TOP
 10
2.921000
 20
3.302000
 40
0.200000
 41
0.200000
 42
0.000000
  0
VERTEX
  8
PG_SILKSCREEN_TOP
 10
2.921000
 20
0.254000
 40
0.200000
 41
0.200000
 42
0.000000
  0
VERTEX
  8
PG_SILKSCREEN_TOP
 10
18.669000
 20
0.254000
 40
0.200000
 41
0.200000
 42
0.000000
  0
SEQEND
  0
POLYLINE
  8
PG_SILKSCREEN_TOP
 66
1
 70
0
 40
0.000000
 41
0.000000
 39
0.000000
  0
VERTEX
  8
PG_SILKSCREEN_TOP
 10
18.669000
 20
0.254000
 40
0.200000
 41
0.200000
 42
0.000000
  0
VERTEX
  8
PG_SILKSCREEN_TOP
 10
18.669000
 20
3.302000
 40
0.200000
 41
0.200000
 42
0.000000
  0
SEQEND
  0
POLYLINE
  8
PIN_TOP
 66
1
 70
1
 40
0.000000
 41
0.000000
 39
0.000000
  0
VERTEX
  8
PIN_TOP
 10
1.412011
 20
3.969995
 40
0.000000
 41
0.000000
 42
0.000000
  0
VERTEX
  8
PIN_TOP
 10
1.412011
 20
4.920005
 40
0.000000
 41
0.000000
 42
0.000000
  0
VERTEX
  8
PIN_TOP
 10
2.342007
 20
4.920005
 40
0.000000
 41
0.000000
 42
0.000000
  0
VERTEX
  8
PIN_TOP
 10
2.342007
 20
3.969995
 40
0.000000
 41
0.000000
 42
0.000000
  0
SEQEND
  0
POLYLINE
  8
PIN_TOP
 66
1
 70
1
 40
0.000000
 41
0.000000
 39
0.000000
  0
VERTEX
  8
PIN_TOP
 10
2.991993
 20
3.969995
 40
0.000000
 41
0.000000
 42
0.000000
  0
VERTEX
  8
PIN_TOP
 10
2.991993
 20
4.920005
 40
0.000000
 41
0.000000
 42
0.000000
  0
VERTEX
  8
PIN_TOP
 10
3.921989
 20
4.920005
 40
0.000000
 41
0.000000
 42
0.000000
  0
VERTEX
  8
PIN_TOP
 10
3.921989
 20
3.969995
 40
0.000000
 41
0.000000
 42
0.000000
  0
SEQEND
  0
POLYLINE
  8
PG_SILKSCREEN_TOP
 66
1
 70
0
 40
0.000000
 41
0.000000
 39
0.000000
  0
VERTEX
  8
PG_SILKSCREEN_TOP
 10
1.867002
 20
5.144999
 40
0.200000
 41
0.200000
 42
0.000000
  0
VERTEX
  8
PG_SILKSCREEN_TOP
 10
1.167003
 20
5.144999
 40
0.200000
 41
0.200000
 42
0.000000
  0
VERTEX
  8
PG_SILKSCREEN_TOP
 10
1.167003
 20
3.745001
 40
0.200000
 41
0.200000
 42
0.000000
  0
VERTEX
  8
PG_SILKSCREEN_TOP
 10
1.867002
 20
3.745001
 40
0.200000
 41
0.200000
 42
0.000000
  0
SEQEND
  0
POLYLINE
  8
PG_SILKSCREEN_TOP
 66
1
 70
0
 40
0.000000
 41
0.000000
 39
0.000000
  0
VERTEX
  8
PG_SILKSCREEN_TOP
 10
4.166997
 20
3.745001
 40
0.200000
 41
0.200000
 42
0.000000
  0
VERTEX
  8
PG_SILKSCREEN_TOP
 10
4.166997
 20
5.144999
 40
0.200000
 41
0.200000
 42
0.000000
  0
VERTEX
  8
PG_SILKSCREEN_TOP
 10
3.466998
 20
5.144999
 40
0.200000
 41
0.200000
 42
0.000000
  0
SEQEND
  0
POLYLINE
  8
PG_SILKSCREEN_TOP
 66
1
 70
0
 40
0.000000
 41
0.000000
 39
0.000000
  0
VERTEX
  8
PG_SILKSCREEN_TOP
 10
1.248588
 20
5.613400
 40
0.200000
 41
0.200000
 42
0.000000
  0
VERTEX
  8
PG_SILKSCREEN_TOP
 10
1.748587
 20
5.613400
 40
0.200000
 41
0.200000
 42
0.000000
  0
SEQEND
  0
POLYLINE
  8
PG_SILKSCREEN_TOP
 66
1
 70
0
 40
0.000000
 41
0.000000
 39
0.000000
  0
VERTEX
  8
PG_SILKSCREEN_TOP
 10
1.524000
 20
5.388813
 40
0.200000
 41
0.200000
 42
0.000000
  0
VERTEX
  8
PG_SILKSCREEN_TOP
 10
1.524000
 20
5.888812
 40
0.200000
 41
0.200000
 42
0.000000
  0
SEQEND
  0
POLYLINE
  8
PG_SILKSCREEN_TOP
 66
1
 70
1
 40
0.000000
 41
0.000000
 39
0.000000
  0
VERTEX
  8
PG_SILKSCREEN_TOP
 10
2.567000
 20
4.744999
 40
0.000000
 41
0.000000
 42
0.000000
  0
VERTEX
  8
PG_SILKSCREEN_TOP
 10
2.567000
 20
4.145001
 40
0.000000
 41
0.000000
 42
0.000000
  0
VERTEX
  8
PG_SILKSCREEN_TOP
 10
2.867000
 20
4.445000
 40
0.000000
 41
0.000000
 42
0.000000
  0
SEQEND
  0
TEXT
  8
RE_SILKSCREEN_TOP
 10
1.524000
 20
2.667000
 11
1.778000
 21
2.667000
 40
0.762000
 41
1.000000
 50
0.000000
  7
STANDARD
 71
0
 72
1
  1
D3
 73
0
  0
POLYLINE
  8
PIN_TOP
 66
1
 70
1
 40
0.000000
 41
0.000000
 39
0.000000
  0
VERTEX
  8
PIN_TOP
 10
19.615988
 20
7.767904
 40
0.000000
 41
0.000000
 42
0.000000
  0
VERTEX
  8
PIN_TOP
 10
19.615988
 20
6.567907
 40
0.000000
 41
0.000000
 42
0.000000
  0
VERTEX
  8
PIN_TOP
 10
17.215993
 20
6.567907
 40
0.000000
 41
0.000000
 42
0.000000
  0
VERTEX
  8
PIN_TOP
 10
17.215993
 20
7.767904
 40
0.000000
 41
0.000000
 42
0.000000
  0
SEQEND
  0
POLYLINE
  8
PIN_TOP
 66
1
 70
1
 40
0.000000
 41
0.000000
 39
0.000000
  0
VERTEX
  8
PIN_TOP
 10
19.615988
 20
9.767900
 40
0.000000
 41
0.000000
 42
0.000000
  0
VERTEX
  8
PIN_TOP
 10
19.615988
 20
8.567903
 40
0.000000
 41
0.000000
 42
0.000000
  0
VERTEX
  8
PIN_TOP
 10
17.215993
 20
8.567903
 40
0.000000
 41
0.000000
 42
0.000000
  0
VERTEX
  8
PIN_TOP
 10
17.215993
 20
9.767900
 40
0.000000
 41
0.000000
 42
0.000000
  0
SEQEND
  0
POLYLINE
  8
PIN_TOP
 66
1
 70
1
 40
0.000000
 41
0.000000
 39
0.000000
  0
VERTEX
  8
PIN_TOP
 10
19.615988
 20
11.767896
 40
0.000000
 41
0.000000
 42
0.000000
  0
VERTEX
  8
PIN_TOP
 10
19.615988
 20
10.567899
 40
0.000000
 41
0.000000
 42
0.000000
  0
VERTEX
  8
PIN_TOP
 10
17.215993
 20
10.567899
 40
0.000000
 41
0.000000
 42
0.000000
  0
VERTEX
  8
PIN_TOP
 10
17.215993
 20
11.767896
 40
0.000000
 41
0.000000
 42
0.000000
  0
SEQEND
  0
POLYLINE
  8
PIN_TOP
 66
1
 70
1
 40
0.000000
 41
0.000000
 39
0.000000
  0
VERTEX
  8
PIN_TOP
 10
19.615988
 20
13.767892
 40
0.000000
 41
0.000000
 42
0.000000
  0
VERTEX
  8
PIN_TOP
 10
19.615988
 20
12.567895
 40
0.000000
 41
0.000000
 42
0.000000
  0
VERTEX
  8
PIN_TOP
 10
17.215993
 20
12.567895
 40
0.000000
 41
0.000000
 42
0.000000
  0
VERTEX
  8
PIN_TOP
 10
17.215993
 20
13.767892
 40
0.000000
 41
0.000000
 42
0.000000
  0
SEQEND
  0
POLYLINE
  8
PIN_TOP
 66
1
 70
1
 40
0.000000
 41
0.000000
 39
0.000000
  0
VERTEX
  8
PIN_TOP
 10
19.615988
 20
15.767914
 40
0.000000
 41
0.000000
 42
0.000000
  0
VERTEX
  8
PIN_TOP
 10
19.615988
 20
14.567916
 40
0.000000
 41
0.000000
 42
0.000000
  0
VERTEX
  8
PIN_TOP
 10
17.215993
 20
14.567916
 40
0.000000
 41
0.000000
 42
0.000000
  0
VERTEX
  8
PIN_TOP
 10
17.215993
 20
15.767914
 40
0.000000
 41
0.000000
 42
0.000000
  0
SEQEND
  0
POLYLINE
  8
PIN_TOP
 66
1
 70
1
 40
0.000000
 41
0.000000
 39
0.000000
  0
VERTEX
  8
PIN_TOP
 10
19.615988
 20
17.767910
 40
0.000000
 41
0.000000
 42
0.000000
  0
VERTEX
  8
PIN_TOP
 10
19.615988
 20
16.567912
 40
0.000000
 41
0.000000
 42
0.000000
  0
VERTEX
  8
PIN_TOP
 10
17.215993
 20
16.567912
 40
0.000000
 41
0.000000
 42
0.000000
  0
VERTEX
  8
PIN_TOP
 10
17.215993
 20
17.767910
 40
0.000000
 41
0.000000
 42
0.000000
  0
SEQEND
  0
POLYLINE
  8
PIN_TOP
 66
1
 70
1
 40
0.000000
 41
0.000000
 39
0.000000
  0
VERTEX
  8
PIN_TOP
 10
19.615988
 20
19.767906
 40
0.000000
 41
0.000000
 42
0.000000
  0
VERTEX
  8
PIN_TOP
 10
19.615988
 20
18.567908
 40
0.000000
 41
0.000000
 42
0.000000
  0
VERTEX
  8
PIN_TOP
 10
17.215993
 20
18.567908
 40
0.000000
 41
0.000000
 42
0.000000
  0
VERTEX
  8
PIN_TOP
 10
17.215993
 20
19.767906
 40
0.000000
 41
0.000000
 42
0.000000
  0
SEQEND
  0
POLYLINE
  8
PIN_TOP
 66
1
 70
1
 40
0.000000
 41
0.000000
 39
0.000000
  0
VERTEX
  8
PIN_TOP
 10
19.615988
 20
21.767902
 40
0.000000
 41
0.000000
 42
0.000000
  0
VERTEX
  8
PIN_TOP
 10
19.615988
 20
20.567904
 40
0.000000
 41
0.000000
 42
0.000000
  0
VERTEX
  8
PIN_TOP
 10
17.215993
 20
20.567904
 40
0.000000
 41
0.000000
 42
0.000000
  0
VERTEX
  8
PIN_TOP
 10
17.215993
 20
21.767902
 40
0.000000
 41
0.000000
 42
0.000000
  0
SEQEND
  0
POLYLINE
  8
PIN_TOP
 66
1
 70
1
 40
0.000000
 41
0.000000
 39
0.000000
  0
VERTEX
  8
PIN_TOP
 10
3.815994
 20
21.767902
 40
0.000000
 41
0.000000
 42
0.000000
  0
VERTEX
  8
PIN_TOP
 10
3.815994
 20
20.567904
 40
0.000000
 41
0.000000
 42
0.000000
  0
VERTEX
  8
PIN_TOP
 10
1.415999
 20
20.567904
 40
0.000000
 41
0.000000
 42
0.000000
  0
VERTEX
  8
PIN_TOP
 10
1.415999
 20
21.767902
 40
0.000000
 41
0.000000
 42
0.000000
  0
SEQEND
  0
POLYLINE
  8
PIN_TOP
 66
1
 70
1
 40
0.000000
 41
0.000000
 39
0.000000
  0
VERTEX
  8
PIN_TOP
 10
3.815994
 20
19.767906
 40
0.000000
 41
0.000000
 42
0.000000
  0
VERTEX
  8
PIN_TOP
 10
3.815994
 20
18.567908
 40
0.000000
 41
0.000000
 42
0.000000
  0
VERTEX
  8
PIN_TOP
 10
1.415999
 20
18.567908
 40
0.000000
 41
0.000000
 42
0.000000
  0
VERTEX
  8
PIN_TOP
 10
1.415999
 20
19.767906
 40
0.000000
 41
0.000000
 42
0.000000
  0
SEQEND
  0
POLYLINE
  8
PIN_TOP
 66
1
 70
1
 40
0.000000
 41
0.000000
 39
0.000000
  0
VERTEX
  8
PIN_TOP
 10
3.815994
 20
17.767910
 40
0.000000
 41
0.000000
 42
0.000000
  0
VERTEX
  8
PIN_TOP
 10
3.815994
 20
16.567912
 40
0.000000
 41
0.000000
 42
0.000000
  0
VERTEX
  8
PIN_TOP
 10
1.415999
 20
16.567912
 40
0.000000
 41
0.000000
 42
0.000000
  0
VERTEX
  8
PIN_TOP
 10
1.415999
 20
17.767910
 40
0.000000
 41
0.000000
 42
0.000000
  0
SEQEND
  0
POLYLINE
  8
PIN_TOP
 66
1
 70
1
 40
0.000000
 41
0.000000
 39
0.000000
  0
VERTEX
  8
PIN_TOP
 10
3.815994
 20
15.767914
 40
0.000000
 41
0.000000
 42
0.000000
  0
VERTEX
  8
PIN_TOP
 10
3.815994
 20
14.567916
 40
0.000000
 41
0.000000
 42
0.000000
  0
VERTEX
  8
PIN_TOP
 10
1.415999
 20
14.567916
 40
0.000000
 41
0.000000
 42
0.000000
  0
VERTEX
  8
PIN_TOP
 10
1.415999
 20
15.767914
 40
0.000000
 41
0.000000
 42
0.000000
  0
SEQEND
  0
POLYLINE
  8
PIN_TOP
 66
1
 70
1
 40
0.000000
 41
0.000000
 39
0.000000
  0
VERTEX
  8
PIN_TOP
 10
3.815994
 20
13.767892
 40
0.000000
 41
0.000000
 42
0.000000
  0
VERTEX
  8
PIN_TOP
 10
3.815994
 20
12.567895
 40
0.000000
 41
0.000000
 42
0.000000
  0
VERTEX
  8
PIN_TOP
 10
1.415999
 20
12.567895
 40
0.000000
 41
0.000000
 42
0.000000
  0
VERTEX
  8
PIN_TOP
 10
1.415999
 20
13.767892
 40
0.000000
 41
0.000000
 42
0.000000
  0
SEQEND
  0
POLYLINE
  8
PIN_TOP
 66
1
 70
1
 40
0.000000
 41
0.000000
 39
0.000000
  0
VERTEX
  8
PIN_TOP
 10
3.815994
 20
11.767896
 40
0.000000
 41
0.000000
 42
0.000000
  0
VERTEX
  8
PIN_TOP
 10
3.815994
 20
10.567899
 40
0.000000
 41
0.000000
 42
0.000000
  0
VERTEX
  8
PIN_TOP
 10
1.415999
 20
10.567899
 40
0.000000
 41
0.000000
 42
0.000000
  0
VERTEX
  8
PIN_TOP
 10
1.415999
 20
11.767896
 40
0.000000
 41
0.000000
 42
0.000000
  0
SEQEND
  0
POLYLINE
  8
PIN_TOP
 66
1
 70
1
 40
0.000000
 41
0.000000
 39
0.000000
  0
VERTEX
  8
PIN_TOP
 10
3.815994
 20
9.767900
 40
0.000000
 41
0.000000
 42
0.000000
  0
VERTEX
  8
PIN_TOP
 10
3.815994
 20
8.567903
 40
0.000000
 41
0.000000
 42
0.000000
  0
VERTEX
  8
PIN_TOP
 10
1.415999
 20
8.567903
 40
0.000000
 41
0.000000
 42
0.000000
  0
VERTEX
  8
PIN_TOP
 10
1.415999
 20
9.767900
 40
0.000000
 41
0.000000
 42
0.000000
  0
SEQEND
  0
POLYLINE
  8
PIN_TOP
 66
1
 70
1
 40
0.000000
 41
0.000000
 39
0.000000
  0
VERTEX
  8
PIN_TOP
 10
3.815994
 20
7.767904
 40
0.000000
 41
0.000000
 42
0.000000
  0
VERTEX
  8
PIN_TOP
 10
3.815994
 20
6.567907
 40
0.000000
 41
0.000000
 42
0.000000
  0
VERTEX
  8
PIN_TOP
 10
1.415999
 20
6.567907
 40
0.000000
 41
0.000000
 42
0.000000
  0
VERTEX
  8
PIN_TOP
 10
1.415999
 20
7.767904
 40
0.000000
 41
0.000000
 42
0.000000
  0
SEQEND
  0
POLYLINE
  8
PIN_TOP
 66
1
 70
1
 40
0.000000
 41
0.000000
 39
0.000000
  0
VERTEX
  8
PIN_TOP
 10
6.215990
 20
6.367907
 40
0.000000
 41
0.000000
 42
0.000000
  0
VERTEX
  8
PIN_TOP
 10
6.215990
 20
4.367911
 40
0.000000
 41
0.000000
 42
0.000000
  0
VERTEX
  8
PIN_TOP
 10
5.015992
 20
4.367911
 40
0.000000
 41
0.000000
 42
0.000000
  0
VERTEX
  8
PIN_TOP
 10
5.015992
 20
6.367907
 40
0.000000
 41
0.000000
 42
0.000000
  0
SEQEND
  0
POLYLINE
  8
PIN_TOP
 66
1
 70
1
 40
0.000000
 41
0.000000
 39
0.000000
  0
VERTEX
  8
PIN_TOP
 10
8.215986
 20
6.367907
 40
0.000000
 41
0.000000
 42
0.000000
  0
VERTEX
  8
PIN_TOP
 10
8.215986
 20
4.367911
 40
0.000000
 41
0.000000
 42
0.000000
  0
VERTEX
  8
PIN_TOP
 10
7.015988
 20
4.367911
 40
0.000000
 41
0.000000
 42
0.000000
  0
VERTEX
  8
PIN_TOP
 10
7.015988
 20
6.367907
 40
0.000000
 41
0.000000
 42
0.000000
  0
SEQEND
  0
POLYLINE
  8
PIN_TOP
 66
1
 70
1
 40
0.000000
 41
0.000000
 39
0.000000
  0
VERTEX
  8
PIN_TOP
 10
10.215982
 20
6.367907
 40
0.000000
 41
0.000000
 42
0.000000
  0
VERTEX
  8
PIN_TOP
 10
10.215982
 20
4.367911
 40
0.000000
 41
0.000000
 42
0.000000
  0
VERTEX
  8
PIN_TOP
 10
9.015984
 20
4.367911
 40
0.000000
 41
0.000000
 42
0.000000
  0
VERTEX
  8
PIN_TOP
 10
9.015984
 20
6.367907
 40
0.000000
 41
0.000000
 42
0.000000
  0
SEQEND
  0
POLYLINE
  8
PIN_TOP
 66
1
 70
1
 40
0.000000
 41
0.000000
 39
0.000000
  0
VERTEX
  8
PIN_TOP
 10
12.215978
 20
6.367907
 40
0.000000
 41
0.000000
 42
0.000000
  0
VERTEX
  8
PIN_TOP
 10
12.215978
 20
4.367911
 40
0.000000
 41
0.000000
 42
0.000000
  0
VERTEX
  8
PIN_TOP
 10
11.015980
 20
4.367911
 40
0.000000
 41
0.000000
 42
0.000000
  0
VERTEX
  8
PIN_TOP
 10
11.015980
 20
6.367907
 40
0.000000
 41
0.000000
 42
0.000000
  0
SEQEND
  0
POLYLINE
  8
PIN_TOP
 66
1
 70
1
 40
0.000000
 41
0.000000
 39
0.000000
  0
VERTEX
  8
PIN_TOP
 10
14.215999
 20
6.367907
 40
0.000000
 41
0.000000
 42
0.000000
  0
VERTEX
  8
PIN_TOP
 10
14.215999
 20
4.367911
 40
0.000000
 41
0.000000
 42
0.000000
  0
VERTEX
  8
PIN_TOP
 10
13.016001
 20
4.367911
 40
0.000000
 41
0.000000
 42
0.000000
  0
VERTEX
  8
PIN_TOP
 10
13.016001
 20
6.367907
 40
0.000000
 41
0.000000
 42
0.000000
  0
SEQEND
  0
POLYLINE
  8
PIN_TOP
 66
1
 70
1
 40
0.000000
 41
0.000000
 39
0.000000
  0
VERTEX
  8
PIN_TOP
 10
16.215995
 20
6.367907
 40
0.000000
 41
0.000000
 42
0.000000
  0
VERTEX
  8
PIN_TOP
 10
16.215995
 20
4.367911
 40
0.000000
 41
0.000000
 42
0.000000
  0
VERTEX
  8
PIN_TOP
 10
15.015997
 20
4.367911
 40
0.000000
 41
0.000000
 42
0.000000
  0
VERTEX
  8
PIN_TOP
 10
15.015997
 20
6.367907
 40
0.000000
 41
0.000000
 42
0.000000
  0
SEQEND
  0
POLYLINE
  8
PG_SILKSCREEN_TOP
 66
1
 70
0
 40
0.000000
 41
0.000000
 39
0.000000
  0
VERTEX
  8
PG_SILKSCREEN_TOP
 10
18.615990
 20
5.367909
 40
0.200000
 41
0.200000
 42
0.000000
  0
VERTEX
  8
PG_SILKSCREEN_TOP
 10
18.615990
 20
29.367912
 40
0.200000
 41
0.200000
 42
0.000000
  0
VERTEX
  8
PG_SILKSCREEN_TOP
 10
2.415997
 20
29.367912
 40
0.200000
 41
0.200000
 42
0.000000
  0
VERTEX
  8
PG_SILKSCREEN_TOP
 10
2.415997
 20
5.367909
 40
0.200000
 41
0.200000
 42
0.000000
  0
VERTEX
  8
PG_SILKSCREEN_TOP
 10
18.615990
 20
5.367909
 40
0.200000
 41
0.200000
 42
0.000000
  0
SEQEND
  0
POLYLINE
  8
RE_DISPLAY_TOP
 66
1
 70
1
 40
0.000000
 41
0.000000
 39
0.000000
  0
VERTEX
  8
RE_DISPLAY_TOP
 10
17.644999
 20
1.778000
 40
0.000000
 41
0.000000
 42
1.000000
  0
VERTEX
  8
RE_DISPLAY_TOP
 10
16.645001
 20
1.778000
 40
0.000000
 41
0.000000
 42
1.000000
  0
SEQEND
  0
POLYLINE
  8
RE_DISPLAY_TOP
 66
1
 70
1
 40
0.000000
 41
0.000000
 39
0.000000
  0
VERTEX
  8
RE_DISPLAY_TOP
 10
15.104999
 20
1.778000
 40
0.000000
 41
0.000000
 42
1.000000
  0
VERTEX
  8
RE_DISPLAY_TOP
 10
14.105001
 20
1.778000
 40
0.000000
 41
0.000000
 42
1.000000
  0
SEQEND
  0
POLYLINE
  8
RE_DISPLAY_TOP
 66
1
 70
1
 40
0.000000
 41
0.000000
 39
0.000000
  0
VERTEX
  8
RE_DISPLAY_TOP
 10
12.564999
 20
1.778000
 40
0.000000
 41
0.000000
 42
1.000000
  0
VERTEX
  8
RE_DISPLAY_TOP
 10
11.565001
 20
1.778000
 40
0.000000
 41
0.000000
 42
1.000000
  0
SEQEND
  0
POLYLINE
  8
RE_DISPLAY_TOP
 66
1
 70
1
 40
0.000000
 41
0.000000
 39
0.000000
  0
VERTEX
  8
RE_DISPLAY_TOP
 10
10.024999
 20
1.778000
 40
0.000000
 41
0.000000
 42
1.000000
  0
VERTEX
  8
RE_DISPLAY_TOP
 10
9.025001
 20
1.778000
 40
0.000000
 41
0.000000
 42
1.000000
  0
SEQEND
  0
POLYLINE
  8
RE_DISPLAY_TOP
 66
1
 70
1
 40
0.000000
 41
0.000000
 39
0.000000
  0
VERTEX
  8
RE_DISPLAY_TOP
 10
7.484999
 20
1.778000
 40
0.000000
 41
0.000000
 42
1.000000
  0
VERTEX
  8
RE_DISPLAY_TOP
 10
6.485001
 20
1.778000
 40
0.000000
 41
0.000000
 42
1.000000
  0
SEQEND
  0
POLYLINE
  8
RE_DISPLAY_TOP
 66
1
 70
1
 40
0.000000
 41
0.000000
 39
0.000000
  0
VERTEX
  8
RE_DISPLAY_TOP
 10
4.944999
 20
1.778000
 40
0.000000
 41
0.000000
 42
1.000000
  0
VERTEX
  8
RE_DISPLAY_TOP
 10
3.945001
 20
1.778000
 40
0.000000
 41
0.000000
 42
1.000000
  0
SEQEND
  0
POLYLINE
  8
BG_OUTLINE
 66
1
 70
1
 40
0.000000
 41
0.000000
 39
0.000000
  0
VERTEX
  8
BG_OUTLINE
 10
19.716013
 20
30.015993
 40
0.000000
 41
0.000000
 42
-0.414199
  0
VERTEX
  8
BG_OUTLINE
 10
20.523987
 20
29.208019
 40
0.000000
 41
0.000000
 42
0.000000
  0
VERTEX
  8
BG_OUTLINE
 10
20.523987
 20
0.807999
 40
0.000000
 41
0.000000
 42
-0.414216
  0
VERTEX
  8
BG_OUTLINE
 10
19.715988
 20
0.000000
 40
0.000000
 41
0.000000
 42
0.000000
  0
VERTEX
  8
BG_OUTLINE
 10
1.315999
 20
0.000000
 40
0.000000
 41
0.000000
 42
-0.414213
  0
VERTEX
  8
BG_OUTLINE
 10
0.508000
 20
0.807999
 40
0.000000
 41
0.000000
 42
0.000000
  0
VERTEX
  8
BG_OUTLINE
 10
0.508000
 20
29.207993
 40
0.000000
 41
0.000000
 42
-0.414215
  0
VERTEX
  8
BG_OUTLINE
 10
1.315999
 20
30.015993
 40
0.000000
 41
0.000000
 42
0.000000
  0
SEQEND
  0
POLYLINE
  8
BG_OUTLINE
 66
1
 70
1
 40
0.000000
 41
0.000000
 39
0.000000
  0
VERTEX
  8
BG_OUTLINE
 10
19.716013
 20
30.015993
 40
0.000000
 41
0.000000
 42
-0.414199
  0
VERTEX
  8
BG_OUTLINE
 10
20.523987
 20
29.208019
 40
0.000000
 41
0.000000
 42
0.000000
  0
VERTEX
  8
BG_OUTLINE
 10
20.523987
 20
0.807999
 40
0.000000
 41
0.000000
 42
-0.414216
  0
VERTEX
  8
BG_OUTLINE
 10
19.715988
 20
0.000000
 40
0.000000
 41
0.000000
 42
0.000000
  0
VERTEX
  8
BG_OUTLINE
 10
1.315999
 20
0.000000
 40
0.000000
 41
0.000000
 42
-0.414213
  0
VERTEX
  8
BG_OUTLINE
 10
0.508000
 20
0.807999
 40
0.000000
 41
0.000000
 42
0.000000
  0
VERTEX
  8
BG_OUTLINE
 10
0.508000
 20
29.207993
 40
0.000000
 41
0.000000
 42
-0.414215
  0
VERTEX
  8
BG_OUTLINE
 10
1.315999
 20
30.015993
 40
0.000000
 41
0.000000
 42
0.000000
  0
SEQEND
  0
TEXT
  8
BO_SILKSCREEN_TOP
 10
3.467100
 20
2.794000
 11
0.000000
 21
0.000000
 40
0.762000
 41
1.000000
 50
0.000000
  7
STANDARD
 71
0
 72
0
  1
IO0
 73
0
  0
TEXT
  8
BO_SILKSCREEN_TOP
 10
6.007100
 20
2.794000
 11
0.000000
 21
0.000000
 40
0.762000
 41
1.000000
 50
0.000000
  7
STANDARD
 71
0
 72
0
  1
RST
 73
0
  0
TEXT
  8
BO_SILKSCREEN_TOP
 10
8.877300
 20
2.794000
 11
0.000000
 21
0.000000
 40
0.762000
 41
1.000000
 50
0.000000
  7
STANDARD
 71
0
 72
0
  1
RX
 73
0
  0
TEXT
  8
BO_SILKSCREEN_TOP
 10
11.417300
 20
2.794000
 11
0.000000
 21
0.000000
 40
0.762000
 41
1.000000
 50
0.000000
  7
STANDARD
 71
0
 72
0
  1
TX
 73
0
  0
TEXT
  8
BO_SILKSCREEN_TOP
 10
13.627100
 20
2.794000
 11
0.000000
 21
0.000000
 40
0.762000
 41
1.000000
 50
0.000000
  7
STANDARD
 71
0
 72
0
  1
GND
 73
0
  0
TEXT
  8
BO_SILKSCREEN_TOP
 10
16.497300
 20
2.794000
 11
0.000000
 21
0.000000
 40
0.762000
 41
1.000000
 50
0.000000
  7
STANDARD
 71
0
 72
0
  1
5V
 73
0
  0
ENDSEC
  0
EOF
