  0
SECTION
  2
HEADER
  9
$ACADVER
  1
AC1009
  9
$INSBASE
 10
0.000000
 20
0.000000
  9
$LIMMIN
 10
-98.984003
 20
-99.492003
  9
$LIMMAX
 10
434.415997
 20
332.307997
  9
$EXTMIN
 10
-98.984003
 20
-99.492003
  9
$EXTMAX
 10
434.415997
 20
332.307997
  9
$ATTMODE
 70
0
  9
$LUNITS
 70
2
  9
$LUPREC
 70
3
  9
$THICKNESS
 40
0.264160
  0
ENDSEC
  0
SECTION
  2
TABLES
  0
TABLE
  2
LTYPE
 70
1
  0
LTYPE
  3
Solid Line
  2
CONTINUOUS
 70
0
 72
65
 73
0
 40
0.000000
  0
ENDTAB
  0
TABLE
  2
LAYER
 70
6
  0
LAYER
  2
BG_OUTLINE
 70
0
 62
6
  6
CONTINUOUS
  0
LAYER
  2
BO_SILKSCREEN_BOTTOM
 70
0
 62
4
  6
CONTINUOUS
  0
LAYER
  2
PG_SILKSCREEN_BOTTOM
 70
0
 62
4
  6
CONTINUOUS
  0
LAYER
  2
RE_SILKSCREEN_BOTTOM
 70
0
 62
4
  6
CONTINUOUS
  0
LAYER
  2
RE_DISPLAY_TOP
 70
0
 62
142
  6
CONTINUOUS
  0
LAYER
  2
PIN_BOTTOM
 70
0
 62
111
  6
CONTINUOUS
  0
ENDTAB
  0
TABLE
  2
STYLE
 70
1
  0
STYLE
  2
STANDARD
 70
0
 40
0.000000
 41
1.000000
 50
0.000000
 71
0
 42
0.200000
  3
txt
  0
ENDTAB
  0
ENDSEC
  0
SECTION
  2
BLOCKS
  0
BLOCK
  8
0
  2
FIGURE_CIRCLE
 70
0
 10
0.000000
 20
0.000000
  0
CIRCLE
  8
0
 10
0.000000
 20
0.000000
 40
0.500000
  0
ENDBLK
  0
BLOCK
  8
0
  2
FIGURE_SQUARE
 70
0
 10
0.000000
 20
0.000000
  0
POLYLINE
  8
0
 66
1
 70
1
 40
0.000000
 41
0.000000
 39
0.000000
  0
VERTEX
  8
0
 10
-0.500000
 20
-0.500000
 40
0.000000
 41
0.000000
 42
0.000000
  0
VERTEX
  8
0
 10
-0.500000
 20
0.500000
 40
0.000000
 41
0.000000
 42
0.000000
  0
VERTEX
  8
0
 10
0.500000
 20
0.500000
 40
0.000000
 41
0.000000
 42
0.000000
  0
VERTEX
  8
0
 10
0.500000
 20
-0.500000
 40
0.000000
 41
0.000000
 42
0.000000
  0
SEQEND
  0
ENDBLK
  0
BLOCK
  8
0
  2
FIGURE_HEX
 70
0
 10
0.000000
 20
0.000000
  0
POLYLINE
  8
0
 66
1
 70
1
 40
0.000000
 41
0.000000
 39
0.000000
  0
VERTEX
  8
0
 10
-0.500000
 20
0.000000
 40
0.000000
 41
0.000000
 42
0.000000
  0
VERTEX
  8
0
 10
-0.250000
 20
0.500000
 40
0.000000
 41
0.000000
 42
0.000000
  0
VERTEX
  8
0
 10
0.250000
 20
0.500000
 40
0.000000
 41
0.000000
 42
0.000000
  0
VERTEX
  8
0
 10
0.500000
 20
0.000000
 40
0.000000
 41
0.000000
 42
0.000000
  0
VERTEX
  8
0
 10
0.250000
 20
-0.500000
 40
0.000000
 41
0.000000
 42
0.000000
  0
VERTEX
  8
0
 10
-0.250000
 20
-0.500000
 40
0.000000
 41
0.000000
 42
0.000000
  0
SEQEND
  0
ENDBLK
  0
BLOCK
  8
0
  2
FIGURE_OCT
 70
0
 10
0.000000
 20
0.000000
  0
POLYLINE
  8
0
 66
1
 70
1
 40
0.000000
 41
0.000000
 39
0.000000
  0
VERTEX
  8
0
 10
-0.500000
 20
-0.207100
 40
0.000000
 41
0.000000
 42
0.000000
  0
VERTEX
  8
0
 10
-0.500000
 20
0.207100
 40
0.000000
 41
0.000000
 42
0.000000
  0
VERTEX
  8
0
 10
-0.207100
 20
0.500000
 40
0.000000
 41
0.000000
 42
0.000000
  0
VERTEX
  8
0
 10
0.207100
 20
0.500000
 40
0.000000
 41
0.000000
 42
0.000000
  0
VERTEX
  8
0
 10
0.500000
 20
0.207100
 40
0.000000
 41
0.000000
 42
0.000000
  0
VERTEX
  8
0
 10
0.500000
 20
-0.207100
 40
0.000000
 41
0.000000
 42
0.000000
  0
VERTEX
  8
0
 10
0.207100
 20
-0.500000
 40
0.000000
 41
0.000000
 42
0.000000
  0
VERTEX
  8
0
 10
-0.207100
 20
-0.500000
 40
0.000000
 41
0.000000
 42
0.000000
  0
SEQEND
  0
ENDBLK
  0
BLOCK
  8
0
  2
FIGURE_OBLONG
 70
0
 10
0.000000
 20
0.000000
  0
POLYLINE
  8
0
 66
1
 70
1
 40
0.000000
 41
0.000000
 39
0.000000
  0
VERTEX
  8
0
 10
-0.500000
 20
-0.125000
 40
0.000000
 41
0.000000
 42
0.000000
  0
VERTEX
  8
0
 10
-0.500000
 20
0.125000
 40
0.000000
 41
0.000000
 42
0.000000
  0
VERTEX
  8
0
 10
-0.416000
 20
0.375000
 40
0.000000
 41
0.000000
 42
0.000000
  0
VERTEX
  8
0
 10
-0.250000
 20
0.500000
 40
0.000000
 41
0.000000
 42
0.000000
  0
VERTEX
  8
0
 10
0.250000
 20
0.500000
 40
0.000000
 41
0.000000
 42
0.000000
  0
VERTEX
  8
0
 10
0.416000
 20
0.375000
 40
0.000000
 41
0.000000
 42
0.000000
  0
VERTEX
  8
0
 10
0.500000
 20
0.125000
 40
0.000000
 41
0.000000
 42
0.000000
  0
VERTEX
  8
0
 10
0.500000
 20
-0.125000
 40
0.000000
 41
0.000000
 42
0.000000
  0
VERTEX
  8
0
 10
0.416000
 20
-0.375000
 40
0.000000
 41
0.000000
 42
0.000000
  0
VERTEX
  8
0
 10
0.250000
 20
-0.500000
 40
0.000000
 41
0.000000
 42
0.000000
  0
VERTEX
  8
0
 10
-0.250000
 20
-0.500000
 40
0.000000
 41
0.000000
 42
0.000000
  0
VERTEX
  8
0
 10
-0.416000
 20
-0.375000
 40
0.000000
 41
0.000000
 42
0.000000
  0
SEQEND
  0
ENDBLK
  0
BLOCK
  8
0
  2
FIGURE_TRI
 70
0
 10
0.000000
 20
0.000000
  0
POLYLINE
  8
0
 66
1
 70
1
 40
0.000000
 41
0.000000
 39
0.000000
  0
VERTEX
  8
0
 10
-0.500000
 20
-0.500000
 40
0.000000
 41
0.000000
 42
0.000000
  0
VERTEX
  8
0
 10
0.000000
 20
0.500000
 40
0.000000
 41
0.000000
 42
0.000000
  0
VERTEX
  8
0
 10
0.500000
 20
-0.500000
 40
0.000000
 41
0.000000
 42
0.000000
  0
SEQEND
  0
ENDBLK
  0
BLOCK
  8
0
  2
FIGURE_CROSS
 70
0
 10
0.000000
 20
0.000000
  0
POLYLINE
  8
0
 66
1
 70
0
 40
0.000000
 41
0.000000
 39
0.000000
  0
VERTEX
  8
0
 10
-0.500000
 20
0.000000
 40
0.000000
 41
0.000000
 42
0.000000
  0
VERTEX
  8
0
 10
0.500000
 20
0.000000
 40
0.000000
 41
0.000000
 42
0.000000
  0
SEQEND
  0
POLYLINE
  8
0
 66
1
 70
0
 40
0.000000
 41
0.000000
 39
0.000000
  0
VERTEX
  8
0
 10
0.000000
 20
0.500000
 40
0.000000
 41
0.000000
 42
0.000000
  0
VERTEX
  8
0
 10
0.000000
 20
-0.500000
 40
0.000000
 41
0.000000
 42
0.000000
  0
SEQEND
  0
ENDBLK
  0
BLOCK
  8
0
  2
FIGURE_DIAMOND
 70
0
 10
0.000000
 20
0.000000
  0
POLYLINE
  8
0
 66
1
 70
1
 40
0.000000
 41
0.000000
 39
0.000000
  0
VERTEX
  8
0
 10
-0.500000
 20
0.000000
 40
0.000000
 41
0.000000
 42
0.000000
  0
VERTEX
  8
0
 10
0.000000
 20
0.500000
 40
0.000000
 41
0.000000
 42
0.000000
  0
VERTEX
  8
0
 10
0.500000
 20
0.000000
 40
0.000000
 41
0.000000
 42
0.000000
  0
VERTEX
  8
0
 10
0.000000
 20
-0.500000
 40
0.000000
 41
0.000000
 42
0.000000
  0
SEQEND
  0
ENDBLK
  0
ENDSEC
  0
SECTION
  2
ENTITIES
  0
POLYLINE
  8
PIN_BOTTOM
 66
1
 70
1
 40
0.000000
 41
0.000000
 39
0.000000
  0
VERTEX
  8
PIN_BOTTOM
 10
17.944998
 20
2.577998
 40
0.000000
 41
0.000000
 42
0.000000
  0
VERTEX
  8
PIN_BOTTOM
 10
17.944998
 20
0.978002
 40
0.000000
 41
0.000000
 42
0.000000
  0
VERTEX
  8
PIN_BOTTOM
 10
16.345002
 20
0.978002
 40
0.000000
 41
0.000000
 42
0.000000
  0
VERTEX
  8
PIN_BOTTOM
 10
16.345002
 20
2.577998
 40
0.000000
 41
0.000000
 42
0.000000
  0
SEQEND
  0
CIRCLE
  8
PIN_BOTTOM
 10
14.605000
 20
1.778000
 40
0.799998
  0
CIRCLE
  8
PIN_BOTTOM
 10
12.065000
 20
1.778000
 40
0.799998
  0
CIRCLE
  8
PIN_BOTTOM
 10
9.525000
 20
1.778000
 40
0.799998
  0
CIRCLE
  8
PIN_BOTTOM
 10
6.985000
 20
1.778000
 40
0.799998
  0
CIRCLE
  8
PIN_BOTTOM
 10
4.445000
 20
1.778000
 40
0.799998
  0
POLYLINE
  8
PIN_BOTTOM
 66
1
 70
1
 40
0.000000
 41
0.000000
 39
0.000000
  0
VERTEX
  8
PIN_BOTTOM
 10
5.242001
 20
21.684005
 40
0.000000
 41
0.000000
 42
0.000000
  0
VERTEX
  8
PIN_BOTTOM
 10
5.242001
 20
20.733995
 40
0.000000
 41
0.000000
 42
0.000000
  0
VERTEX
  8
PIN_BOTTOM
 10
6.171997
 20
20.733995
 40
0.000000
 41
0.000000
 42
0.000000
  0
VERTEX
  8
PIN_BOTTOM
 10
6.171997
 20
21.684005
 40
0.000000
 41
0.000000
 42
0.000000
  0
SEQEND
  0
POLYLINE
  8
PIN_BOTTOM
 66
1
 70
1
 40
0.000000
 41
0.000000
 39
0.000000
  0
VERTEX
  8
PIN_BOTTOM
 10
6.782003
 20
21.684005
 40
0.000000
 41
0.000000
 42
0.000000
  0
VERTEX
  8
PIN_BOTTOM
 10
6.782003
 20
20.733995
 40
0.000000
 41
0.000000
 42
0.000000
  0
VERTEX
  8
PIN_BOTTOM
 10
7.711999
 20
20.733995
 40
0.000000
 41
0.000000
 42
0.000000
  0
VERTEX
  8
PIN_BOTTOM
 10
7.711999
 20
21.684005
 40
0.000000
 41
0.000000
 42
0.000000
  0
SEQEND
  0
POLYLINE
  8
PG_SILKSCREEN_BOTTOM
 66
1
 70
0
 40
0.000000
 41
0.000000
 39
0.000000
  0
VERTEX
  8
PG_SILKSCREEN_BOTTOM
 10
6.171997
 20
20.409002
 40
0.200000
 41
0.200000
 42
0.000000
  0
VERTEX
  8
PG_SILKSCREEN_BOTTOM
 10
4.944999
 20
20.409002
 40
0.200000
 41
0.200000
 42
0.000000
  0
VERTEX
  8
PG_SILKSCREEN_BOTTOM
 10
4.944999
 20
22.008998
 40
0.200000
 41
0.200000
 42
0.000000
  0
VERTEX
  8
PG_SILKSCREEN_BOTTOM
 10
6.177001
 20
22.008998
 40
0.200000
 41
0.200000
 42
0.000000
  0
SEQEND
  0
POLYLINE
  8
PG_SILKSCREEN_BOTTOM
 66
1
 70
0
 40
0.000000
 41
0.000000
 39
0.000000
  0
VERTEX
  8
PG_SILKSCREEN_BOTTOM
 10
6.782003
 20
22.008998
 40
0.200000
 41
0.200000
 42
0.000000
  0
VERTEX
  8
PG_SILKSCREEN_BOTTOM
 10
8.009001
 20
22.008998
 40
0.200000
 41
0.200000
 42
0.000000
  0
VERTEX
  8
PG_SILKSCREEN_BOTTOM
 10
8.009001
 20
20.409002
 40
0.200000
 41
0.200000
 42
0.000000
  0
VERTEX
  8
PG_SILKSCREEN_BOTTOM
 10
6.776999
 20
20.409002
 40
0.200000
 41
0.200000
 42
0.000000
  0
SEQEND
  0
TEXT
  8
RE_SILKSCREEN_BOTTOM
 10
9.017000
 20
20.764500
 11
9.271000
 21
20.764500
 40
0.762000
 41
1.000000
 50
0.000000
  7
STANDARD
 71
2
 72
1
  1
R2
 73
0
  0
POLYLINE
  8
PIN_BOTTOM
 66
1
 70
1
 40
0.000000
 41
0.000000
 39
0.000000
  0
VERTEX
  8
PIN_BOTTOM
 10
1.432001
 20
4.920005
 40
0.000000
 41
0.000000
 42
0.000000
  0
VERTEX
  8
PIN_BOTTOM
 10
1.432001
 20
3.969995
 40
0.000000
 41
0.000000
 42
0.000000
  0
VERTEX
  8
PIN_BOTTOM
 10
2.361997
 20
3.969995
 40
0.000000
 41
0.000000
 42
0.000000
  0
VERTEX
  8
PIN_BOTTOM
 10
2.361997
 20
4.920005
 40
0.000000
 41
0.000000
 42
0.000000
  0
SEQEND
  0
POLYLINE
  8
PIN_BOTTOM
 66
1
 70
1
 40
0.000000
 41
0.000000
 39
0.000000
  0
VERTEX
  8
PIN_BOTTOM
 10
2.972003
 20
4.920005
 40
0.000000
 41
0.000000
 42
0.000000
  0
VERTEX
  8
PIN_BOTTOM
 10
2.972003
 20
3.969995
 40
0.000000
 41
0.000000
 42
0.000000
  0
VERTEX
  8
PIN_BOTTOM
 10
3.901999
 20
3.969995
 40
0.000000
 41
0.000000
 42
0.000000
  0
VERTEX
  8
PIN_BOTTOM
 10
3.901999
 20
4.920005
 40
0.000000
 41
0.000000
 42
0.000000
  0
SEQEND
  0
POLYLINE
  8
PG_SILKSCREEN_BOTTOM
 66
1
 70
0
 40
0.000000
 41
0.000000
 39
0.000000
  0
VERTEX
  8
PG_SILKSCREEN_BOTTOM
 10
2.361997
 20
3.645002
 40
0.200000
 41
0.200000
 42
0.000000
  0
VERTEX
  8
PG_SILKSCREEN_BOTTOM
 10
1.134999
 20
3.645002
 40
0.200000
 41
0.200000
 42
0.000000
  0
VERTEX
  8
PG_SILKSCREEN_BOTTOM
 10
1.134999
 20
5.244998
 40
0.200000
 41
0.200000
 42
0.000000
  0
VERTEX
  8
PG_SILKSCREEN_BOTTOM
 10
2.367001
 20
5.244998
 40
0.200000
 41
0.200000
 42
0.000000
  0
SEQEND
  0
POLYLINE
  8
PG_SILKSCREEN_BOTTOM
 66
1
 70
0
 40
0.000000
 41
0.000000
 39
0.000000
  0
VERTEX
  8
PG_SILKSCREEN_BOTTOM
 10
2.972003
 20
5.244998
 40
0.200000
 41
0.200000
 42
0.000000
  0
VERTEX
  8
PG_SILKSCREEN_BOTTOM
 10
4.199001
 20
5.244998
 40
0.200000
 41
0.200000
 42
0.000000
  0
VERTEX
  8
PG_SILKSCREEN_BOTTOM
 10
4.199001
 20
3.645002
 40
0.200000
 41
0.200000
 42
0.000000
  0
SEQEND
  0
TEXT
  8
RE_SILKSCREEN_BOTTOM
 10
2.286000
 20
5.651500
 11
2.540000
 21
5.651500
 40
0.762000
 41
1.000000
 50
0.000000
  7
STANDARD
 71
2
 72
1
  1
R7
 73
0
  0
POLYLINE
  8
PIN_BOTTOM
 66
1
 70
1
 40
0.000000
 41
0.000000
 39
0.000000
  0
VERTEX
  8
PIN_BOTTOM
 10
15.585999
 20
14.129995
 40
0.000000
 41
0.000000
 42
0.000000
  0
VERTEX
  8
PIN_BOTTOM
 10
15.585999
 20
15.080005
 40
0.000000
 41
0.000000
 42
0.000000
  0
VERTEX
  8
PIN_BOTTOM
 10
14.656003
 20
15.080005
 40
0.000000
 41
0.000000
 42
0.000000
  0
VERTEX
  8
PIN_BOTTOM
 10
14.656003
 20
14.129995
 40
0.000000
 41
0.000000
 42
0.000000
  0
SEQEND
  0
POLYLINE
  8
PIN_BOTTOM
 66
1
 70
1
 40
0.000000
 41
0.000000
 39
0.000000
  0
VERTEX
  8
PIN_BOTTOM
 10
14.045997
 20
14.129995
 40
0.000000
 41
0.000000
 42
0.000000
  0
VERTEX
  8
PIN_BOTTOM
 10
14.045997
 20
15.080005
 40
0.000000
 41
0.000000
 42
0.000000
  0
VERTEX
  8
PIN_BOTTOM
 10
13.116001
 20
15.080005
 40
0.000000
 41
0.000000
 42
0.000000
  0
VERTEX
  8
PIN_BOTTOM
 10
13.116001
 20
14.129995
 40
0.000000
 41
0.000000
 42
0.000000
  0
SEQEND
  0
POLYLINE
  8
PG_SILKSCREEN_BOTTOM
 66
1
 70
0
 40
0.000000
 41
0.000000
 39
0.000000
  0
VERTEX
  8
PG_SILKSCREEN_BOTTOM
 10
14.656003
 20
15.404998
 40
0.200000
 41
0.200000
 42
0.000000
  0
VERTEX
  8
PG_SILKSCREEN_BOTTOM
 10
15.883001
 20
15.404998
 40
0.200000
 41
0.200000
 42
0.000000
  0
VERTEX
  8
PG_SILKSCREEN_BOTTOM
 10
15.883001
 20
13.805002
 40
0.200000
 41
0.200000
 42
0.000000
  0
VERTEX
  8
PG_SILKSCREEN_BOTTOM
 10
14.650999
 20
13.805002
 40
0.200000
 41
0.200000
 42
0.000000
  0
SEQEND
  0
POLYLINE
  8
PG_SILKSCREEN_BOTTOM
 66
1
 70
0
 40
0.000000
 41
0.000000
 39
0.000000
  0
VERTEX
  8
PG_SILKSCREEN_BOTTOM
 10
14.045997
 20
13.805002
 40
0.200000
 41
0.200000
 42
0.000000
  0
VERTEX
  8
PG_SILKSCREEN_BOTTOM
 10
12.818999
 20
13.805002
 40
0.200000
 41
0.200000
 42
0.000000
  0
VERTEX
  8
PG_SILKSCREEN_BOTTOM
 10
12.818999
 20
15.404998
 40
0.200000
 41
0.200000
 42
0.000000
  0
VERTEX
  8
PG_SILKSCREEN_BOTTOM
 10
14.051001
 20
15.404998
 40
0.200000
 41
0.200000
 42
0.000000
  0
SEQEND
  0
TEXT
  8
RE_SILKSCREEN_BOTTOM
 10
16.891000
 20
14.033500
 11
17.145000
 21
14.033500
 40
0.762000
 41
1.000000
 50
0.000000
  7
STANDARD
 71
2
 72
1
  1
R6
 73
0
  0
POLYLINE
  8
PIN_BOTTOM
 66
1
 70
1
 40
0.000000
 41
0.000000
 39
0.000000
  0
VERTEX
  8
PIN_BOTTOM
 10
15.585999
 20
15.907995
 40
0.000000
 41
0.000000
 42
0.000000
  0
VERTEX
  8
PIN_BOTTOM
 10
15.585999
 20
16.858005
 40
0.000000
 41
0.000000
 42
0.000000
  0
VERTEX
  8
PIN_BOTTOM
 10
14.656003
 20
16.858005
 40
0.000000
 41
0.000000
 42
0.000000
  0
VERTEX
  8
PIN_BOTTOM
 10
14.656003
 20
15.907995
 40
0.000000
 41
0.000000
 42
0.000000
  0
SEQEND
  0
POLYLINE
  8
PIN_BOTTOM
 66
1
 70
1
 40
0.000000
 41
0.000000
 39
0.000000
  0
VERTEX
  8
PIN_BOTTOM
 10
14.045997
 20
15.907995
 40
0.000000
 41
0.000000
 42
0.000000
  0
VERTEX
  8
PIN_BOTTOM
 10
14.045997
 20
16.858005
 40
0.000000
 41
0.000000
 42
0.000000
  0
VERTEX
  8
PIN_BOTTOM
 10
13.116001
 20
16.858005
 40
0.000000
 41
0.000000
 42
0.000000
  0
VERTEX
  8
PIN_BOTTOM
 10
13.116001
 20
15.907995
 40
0.000000
 41
0.000000
 42
0.000000
  0
SEQEND
  0
POLYLINE
  8
PG_SILKSCREEN_BOTTOM
 66
1
 70
0
 40
0.000000
 41
0.000000
 39
0.000000
  0
VERTEX
  8
PG_SILKSCREEN_BOTTOM
 10
14.656003
 20
17.182998
 40
0.200000
 41
0.200000
 42
0.000000
  0
VERTEX
  8
PG_SILKSCREEN_BOTTOM
 10
15.883001
 20
17.182998
 40
0.200000
 41
0.200000
 42
0.000000
  0
VERTEX
  8
PG_SILKSCREEN_BOTTOM
 10
15.883001
 20
15.583002
 40
0.200000
 41
0.200000
 42
0.000000
  0
VERTEX
  8
PG_SILKSCREEN_BOTTOM
 10
14.650999
 20
15.583002
 40
0.200000
 41
0.200000
 42
0.000000
  0
SEQEND
  0
POLYLINE
  8
PG_SILKSCREEN_BOTTOM
 66
1
 70
0
 40
0.000000
 41
0.000000
 39
0.000000
  0
VERTEX
  8
PG_SILKSCREEN_BOTTOM
 10
14.045997
 20
15.583002
 40
0.200000
 41
0.200000
 42
0.000000
  0
VERTEX
  8
PG_SILKSCREEN_BOTTOM
 10
12.818999
 20
15.583002
 40
0.200000
 41
0.200000
 42
0.000000
  0
VERTEX
  8
PG_SILKSCREEN_BOTTOM
 10
12.818999
 20
17.182998
 40
0.200000
 41
0.200000
 42
0.000000
  0
VERTEX
  8
PG_SILKSCREEN_BOTTOM
 10
14.051001
 20
17.182998
 40
0.200000
 41
0.200000
 42
0.000000
  0
SEQEND
  0
TEXT
  8
RE_SILKSCREEN_BOTTOM
 10
16.891000
 20
15.938500
 11
17.145000
 21
15.938500
 40
0.762000
 41
1.000000
 50
0.000000
  7
STANDARD
 71
2
 72
1
  1
R5
 73
0
  0
POLYLINE
  8
PIN_BOTTOM
 66
1
 70
1
 40
0.000000
 41
0.000000
 39
0.000000
  0
VERTEX
  8
PIN_BOTTOM
 10
7.711999
 20
15.399995
 40
0.000000
 41
0.000000
 42
0.000000
  0
VERTEX
  8
PIN_BOTTOM
 10
7.711999
 20
16.350005
 40
0.000000
 41
0.000000
 42
0.000000
  0
VERTEX
  8
PIN_BOTTOM
 10
6.782003
 20
16.350005
 40
0.000000
 41
0.000000
 42
0.000000
  0
VERTEX
  8
PIN_BOTTOM
 10
6.782003
 20
15.399995
 40
0.000000
 41
0.000000
 42
0.000000
  0
SEQEND
  0
POLYLINE
  8
PIN_BOTTOM
 66
1
 70
1
 40
0.000000
 41
0.000000
 39
0.000000
  0
VERTEX
  8
PIN_BOTTOM
 10
6.171997
 20
15.399995
 40
0.000000
 41
0.000000
 42
0.000000
  0
VERTEX
  8
PIN_BOTTOM
 10
6.171997
 20
16.350005
 40
0.000000
 41
0.000000
 42
0.000000
  0
VERTEX
  8
PIN_BOTTOM
 10
5.242001
 20
16.350005
 40
0.000000
 41
0.000000
 42
0.000000
  0
VERTEX
  8
PIN_BOTTOM
 10
5.242001
 20
15.399995
 40
0.000000
 41
0.000000
 42
0.000000
  0
SEQEND
  0
POLYLINE
  8
PG_SILKSCREEN_BOTTOM
 66
1
 70
0
 40
0.000000
 41
0.000000
 39
0.000000
  0
VERTEX
  8
PG_SILKSCREEN_BOTTOM
 10
6.782003
 20
16.674998
 40
0.200000
 41
0.200000
 42
0.000000
  0
VERTEX
  8
PG_SILKSCREEN_BOTTOM
 10
8.009001
 20
16.674998
 40
0.200000
 41
0.200000
 42
0.000000
  0
VERTEX
  8
PG_SILKSCREEN_BOTTOM
 10
8.009001
 20
15.075002
 40
0.200000
 41
0.200000
 42
0.000000
  0
VERTEX
  8
PG_SILKSCREEN_BOTTOM
 10
6.776999
 20
15.075002
 40
0.200000
 41
0.200000
 42
0.000000
  0
SEQEND
  0
POLYLINE
  8
PG_SILKSCREEN_BOTTOM
 66
1
 70
0
 40
0.000000
 41
0.000000
 39
0.000000
  0
VERTEX
  8
PG_SILKSCREEN_BOTTOM
 10
6.171997
 20
15.075002
 40
0.200000
 41
0.200000
 42
0.000000
  0
VERTEX
  8
PG_SILKSCREEN_BOTTOM
 10
4.944999
 20
15.075002
 40
0.200000
 41
0.200000
 42
0.000000
  0
VERTEX
  8
PG_SILKSCREEN_BOTTOM
 10
4.944999
 20
16.674998
 40
0.200000
 41
0.200000
 42
0.000000
  0
VERTEX
  8
PG_SILKSCREEN_BOTTOM
 10
6.177001
 20
16.674998
 40
0.200000
 41
0.200000
 42
0.000000
  0
SEQEND
  0
TEXT
  8
RE_SILKSCREEN_BOTTOM
 10
9.017000
 20
15.430500
 11
9.271000
 21
15.430500
 40
0.762000
 41
1.000000
 50
0.000000
  7
STANDARD
 71
2
 72
1
  1
R4
 73
0
  0
POLYLINE
  8
PIN_BOTTOM
 66
1
 70
1
 40
0.000000
 41
0.000000
 39
0.000000
  0
VERTEX
  8
PIN_BOTTOM
 10
5.242001
 20
18.128005
 40
0.000000
 41
0.000000
 42
0.000000
  0
VERTEX
  8
PIN_BOTTOM
 10
5.242001
 20
17.177995
 40
0.000000
 41
0.000000
 42
0.000000
  0
VERTEX
  8
PIN_BOTTOM
 10
6.171997
 20
17.177995
 40
0.000000
 41
0.000000
 42
0.000000
  0
VERTEX
  8
PIN_BOTTOM
 10
6.171997
 20
18.128005
 40
0.000000
 41
0.000000
 42
0.000000
  0
SEQEND
  0
POLYLINE
  8
PIN_BOTTOM
 66
1
 70
1
 40
0.000000
 41
0.000000
 39
0.000000
  0
VERTEX
  8
PIN_BOTTOM
 10
6.782003
 20
18.128005
 40
0.000000
 41
0.000000
 42
0.000000
  0
VERTEX
  8
PIN_BOTTOM
 10
6.782003
 20
17.177995
 40
0.000000
 41
0.000000
 42
0.000000
  0
VERTEX
  8
PIN_BOTTOM
 10
7.711999
 20
17.177995
 40
0.000000
 41
0.000000
 42
0.000000
  0
VERTEX
  8
PIN_BOTTOM
 10
7.711999
 20
18.128005
 40
0.000000
 41
0.000000
 42
0.000000
  0
SEQEND
  0
POLYLINE
  8
PG_SILKSCREEN_BOTTOM
 66
1
 70
0
 40
0.000000
 41
0.000000
 39
0.000000
  0
VERTEX
  8
PG_SILKSCREEN_BOTTOM
 10
6.171997
 20
16.853002
 40
0.200000
 41
0.200000
 42
0.000000
  0
VERTEX
  8
PG_SILKSCREEN_BOTTOM
 10
4.944999
 20
16.853002
 40
0.200000
 41
0.200000
 42
0.000000
  0
VERTEX
  8
PG_SILKSCREEN_BOTTOM
 10
4.944999
 20
18.452998
 40
0.200000
 41
0.200000
 42
0.000000
  0
VERTEX
  8
PG_SILKSCREEN_BOTTOM
 10
6.177001
 20
18.452998
 40
0.200000
 41
0.200000
 42
0.000000
  0
SEQEND
  0
POLYLINE
  8
PG_SILKSCREEN_BOTTOM
 66
1
 70
0
 40
0.000000
 41
0.000000
 39
0.000000
  0
VERTEX
  8
PG_SILKSCREEN_BOTTOM
 10
6.782003
 20
18.452998
 40
0.200000
 41
0.200000
 42
0.000000
  0
VERTEX
  8
PG_SILKSCREEN_BOTTOM
 10
8.009001
 20
18.452998
 40
0.200000
 41
0.200000
 42
0.000000
  0
VERTEX
  8
PG_SILKSCREEN_BOTTOM
 10
8.009001
 20
16.853002
 40
0.200000
 41
0.200000
 42
0.000000
  0
VERTEX
  8
PG_SILKSCREEN_BOTTOM
 10
6.776999
 20
16.853002
 40
0.200000
 41
0.200000
 42
0.000000
  0
SEQEND
  0
TEXT
  8
RE_SILKSCREEN_BOTTOM
 10
9.017000
 20
17.208500
 11
9.271000
 21
17.208500
 40
0.762000
 41
1.000000
 50
0.000000
  7
STANDARD
 71
2
 72
1
  1
R3
 73
0
  0
POLYLINE
  8
PIN_BOTTOM
 66
1
 70
1
 40
0.000000
 41
0.000000
 39
0.000000
  0
VERTEX
  8
PIN_BOTTOM
 10
5.242001
 20
19.906005
 40
0.000000
 41
0.000000
 42
0.000000
  0
VERTEX
  8
PIN_BOTTOM
 10
5.242001
 20
18.955995
 40
0.000000
 41
0.000000
 42
0.000000
  0
VERTEX
  8
PIN_BOTTOM
 10
6.171997
 20
18.955995
 40
0.000000
 41
0.000000
 42
0.000000
  0
VERTEX
  8
PIN_BOTTOM
 10
6.171997
 20
19.906005
 40
0.000000
 41
0.000000
 42
0.000000
  0
SEQEND
  0
POLYLINE
  8
PIN_BOTTOM
 66
1
 70
1
 40
0.000000
 41
0.000000
 39
0.000000
  0
VERTEX
  8
PIN_BOTTOM
 10
6.782003
 20
19.906005
 40
0.000000
 41
0.000000
 42
0.000000
  0
VERTEX
  8
PIN_BOTTOM
 10
6.782003
 20
18.955995
 40
0.000000
 41
0.000000
 42
0.000000
  0
VERTEX
  8
PIN_BOTTOM
 10
7.711999
 20
18.955995
 40
0.000000
 41
0.000000
 42
0.000000
  0
VERTEX
  8
PIN_BOTTOM
 10
7.711999
 20
19.906005
 40
0.000000
 41
0.000000
 42
0.000000
  0
SEQEND
  0
POLYLINE
  8
PG_SILKSCREEN_BOTTOM
 66
1
 70
0
 40
0.000000
 41
0.000000
 39
0.000000
  0
VERTEX
  8
PG_SILKSCREEN_BOTTOM
 10
6.171997
 20
18.631002
 40
0.200000
 41
0.200000
 42
0.000000
  0
VERTEX
  8
PG_SILKSCREEN_BOTTOM
 10
4.944999
 20
18.631002
 40
0.200000
 41
0.200000
 42
0.000000
  0
VERTEX
  8
PG_SILKSCREEN_BOTTOM
 10
4.944999
 20
20.230998
 40
0.200000
 41
0.200000
 42
0.000000
  0
VERTEX
  8
PG_SILKSCREEN_BOTTOM
 10
6.177001
 20
20.230998
 40
0.200000
 41
0.200000
 42
0.000000
  0
SEQEND
  0
POLYLINE
  8
PG_SILKSCREEN_BOTTOM
 66
1
 70
0
 40
0.000000
 41
0.000000
 39
0.000000
  0
VERTEX
  8
PG_SILKSCREEN_BOTTOM
 10
6.782003
 20
20.230998
 40
0.200000
 41
0.200000
 42
0.000000
  0
VERTEX
  8
PG_SILKSCREEN_BOTTOM
 10
8.009001
 20
20.230998
 40
0.200000
 41
0.200000
 42
0.000000
  0
VERTEX
  8
PG_SILKSCREEN_BOTTOM
 10
8.009001
 20
18.631002
 40
0.200000
 41
0.200000
 42
0.000000
  0
VERTEX
  8
PG_SILKSCREEN_BOTTOM
 10
6.776999
 20
18.631002
 40
0.200000
 41
0.200000
 42
0.000000
  0
SEQEND
  0
TEXT
  8
RE_SILKSCREEN_BOTTOM
 10
9.017000
 20
18.986500
 11
9.271000
 21
18.986500
 40
0.762000
 41
1.000000
 50
0.000000
  7
STANDARD
 71
2
 72
1
  1
R1
 73
0
  0
POLYLINE
  8
PIN_BOTTOM
 66
1
 70
1
 40
0.000000
 41
0.000000
 39
0.000000
  0
VERTEX
  8
PIN_BOTTOM
 10
16.545001
 20
5.174005
 40
0.000000
 41
0.000000
 42
0.000000
  0
VERTEX
  8
PIN_BOTTOM
 10
16.545001
 20
4.223995
 40
0.000000
 41
0.000000
 42
0.000000
  0
VERTEX
  8
PIN_BOTTOM
 10
17.474997
 20
4.223995
 40
0.000000
 41
0.000000
 42
0.000000
  0
VERTEX
  8
PIN_BOTTOM
 10
17.474997
 20
5.174005
 40
0.000000
 41
0.000000
 42
0.000000
  0
SEQEND
  0
POLYLINE
  8
PIN_BOTTOM
 66
1
 70
1
 40
0.000000
 41
0.000000
 39
0.000000
  0
VERTEX
  8
PIN_BOTTOM
 10
18.085003
 20
5.174005
 40
0.000000
 41
0.000000
 42
0.000000
  0
VERTEX
  8
PIN_BOTTOM
 10
18.085003
 20
4.223995
 40
0.000000
 41
0.000000
 42
0.000000
  0
VERTEX
  8
PIN_BOTTOM
 10
19.014999
 20
4.223995
 40
0.000000
 41
0.000000
 42
0.000000
  0
VERTEX
  8
PIN_BOTTOM
 10
19.014999
 20
5.174005
 40
0.000000
 41
0.000000
 42
0.000000
  0
SEQEND
  0
POLYLINE
  8
PG_SILKSCREEN_BOTTOM
 66
1
 70
0
 40
0.000000
 41
0.000000
 39
0.000000
  0
VERTEX
  8
PG_SILKSCREEN_BOTTOM
 10
17.680000
 20
4.199001
 40
0.119990
 41
0.119990
 42
0.000000
  0
VERTEX
  8
PG_SILKSCREEN_BOTTOM
 10
17.680000
 20
5.198999
 40
0.119990
 41
0.119990
 42
0.000000
  0
SEQEND
  0
POLYLINE
  8
PG_SILKSCREEN_BOTTOM
 66
1
 70
0
 40
0.000000
 41
0.000000
 39
0.000000
  0
VERTEX
  8
PG_SILKSCREEN_BOTTOM
 10
17.880000
 20
5.198999
 40
0.119990
 41
0.119990
 42
0.000000
  0
VERTEX
  8
PG_SILKSCREEN_BOTTOM
 10
17.880000
 20
4.199001
 40
0.119990
 41
0.119990
 42
0.000000
  0
SEQEND
  0
POLYLINE
  8
PG_SILKSCREEN_BOTTOM
 66
1
 70
0
 40
0.000000
 41
0.000000
 39
0.000000
  0
VERTEX
  8
PG_SILKSCREEN_BOTTOM
 10
16.680002
 20
3.899002
 40
0.200000
 41
0.200000
 42
0.000000
  0
VERTEX
  8
PG_SILKSCREEN_BOTTOM
 10
18.879998
 20
3.899002
 40
0.200000
 41
0.200000
 42
0.414218
  0
VERTEX
  8
PG_SILKSCREEN_BOTTOM
 10
19.379997
 20
4.399001
 40
0.200000
 41
0.200000
 42
0.000000
  0
VERTEX
  8
PG_SILKSCREEN_BOTTOM
 10
19.379997
 20
4.998999
 40
0.200000
 41
0.200000
 42
0.414215
  0
VERTEX
  8
PG_SILKSCREEN_BOTTOM
 10
18.879998
 20
5.498998
 40
0.200000
 41
0.200000
 42
0.000000
  0
VERTEX
  8
PG_SILKSCREEN_BOTTOM
 10
16.680002
 20
5.498998
 40
0.200000
 41
0.200000
 42
0.414210
  0
VERTEX
  8
PG_SILKSCREEN_BOTTOM
 10
16.180003
 20
4.998999
 40
0.200000
 41
0.200000
 42
0.000000
  0
VERTEX
  8
PG_SILKSCREEN_BOTTOM
 10
16.180003
 20
4.399001
 40
0.200000
 41
0.200000
 42
0.414214
  0
VERTEX
  8
PG_SILKSCREEN_BOTTOM
 10
16.680002
 20
3.899002
 40
0.200000
 41
0.200000
 42
0.000000
  0
SEQEND
  0
TEXT
  8
RE_SILKSCREEN_BOTTOM
 10
19.050000
 20
5.778500
 11
19.304000
 21
5.778500
 40
0.762000
 41
1.000000
 50
0.000000
  7
STANDARD
 71
2
 72
1
  1
C1
 73
0
  0
POLYLINE
  8
PIN_BOTTOM
 66
1
 70
1
 40
0.000000
 41
0.000000
 39
0.000000
  0
VERTEX
  8
PIN_BOTTOM
 10
7.779995
 20
8.925001
 40
0.000000
 41
0.000000
 42
0.000000
  0
VERTEX
  8
PIN_BOTTOM
 10
8.730005
 20
8.925001
 40
0.000000
 41
0.000000
 42
0.000000
  0
VERTEX
  8
PIN_BOTTOM
 10
8.730005
 20
9.854997
 40
0.000000
 41
0.000000
 42
0.000000
  0
VERTEX
  8
PIN_BOTTOM
 10
7.779995
 20
9.854997
 40
0.000000
 41
0.000000
 42
0.000000
  0
SEQEND
  0
POLYLINE
  8
PIN_BOTTOM
 66
1
 70
1
 40
0.000000
 41
0.000000
 39
0.000000
  0
VERTEX
  8
PIN_BOTTOM
 10
7.779995
 20
10.465003
 40
0.000000
 41
0.000000
 42
0.000000
  0
VERTEX
  8
PIN_BOTTOM
 10
8.730005
 20
10.465003
 40
0.000000
 41
0.000000
 42
0.000000
  0
VERTEX
  8
PIN_BOTTOM
 10
8.730005
 20
11.394999
 40
0.000000
 41
0.000000
 42
0.000000
  0
VERTEX
  8
PIN_BOTTOM
 10
7.779995
 20
11.394999
 40
0.000000
 41
0.000000
 42
0.000000
  0
SEQEND
  0
POLYLINE
  8
PG_SILKSCREEN_BOTTOM
 66
1
 70
0
 40
0.000000
 41
0.000000
 39
0.000000
  0
VERTEX
  8
PG_SILKSCREEN_BOTTOM
 10
8.754999
 20
10.060000
 40
0.119990
 41
0.119990
 42
0.000000
  0
VERTEX
  8
PG_SILKSCREEN_BOTTOM
 10
7.755001
 20
10.060000
 40
0.119990
 41
0.119990
 42
0.000000
  0
SEQEND
  0
POLYLINE
  8
PG_SILKSCREEN_BOTTOM
 66
1
 70
0
 40
0.000000
 41
0.000000
 39
0.000000
  0
VERTEX
  8
PG_SILKSCREEN_BOTTOM
 10
7.755001
 20
10.260000
 40
0.119990
 41
0.119990
 42
0.000000
  0
VERTEX
  8
PG_SILKSCREEN_BOTTOM
 10
8.754999
 20
10.260000
 40
0.119990
 41
0.119990
 42
0.000000
  0
SEQEND
  0
POLYLINE
  8
PG_SILKSCREEN_BOTTOM
 66
1
 70
0
 40
0.000000
 41
0.000000
 39
0.000000
  0
VERTEX
  8
PG_SILKSCREEN_BOTTOM
 10
9.054998
 20
9.060002
 40
0.200000
 41
0.200000
 42
0.000000
  0
VERTEX
  8
PG_SILKSCREEN_BOTTOM
 10
9.054998
 20
11.259998
 40
0.200000
 41
0.200000
 42
0.414220
  0
VERTEX
  8
PG_SILKSCREEN_BOTTOM
 10
8.554999
 20
11.759997
 40
0.200000
 41
0.200000
 42
0.000000
  0
VERTEX
  8
PG_SILKSCREEN_BOTTOM
 10
7.955001
 20
11.759997
 40
0.200000
 41
0.200000
 42
0.414216
  0
VERTEX
  8
PG_SILKSCREEN_BOTTOM
 10
7.455002
 20
11.259998
 40
0.200000
 41
0.200000
 42
0.000000
  0
VERTEX
  8
PG_SILKSCREEN_BOTTOM
 10
7.455002
 20
9.060002
 40
0.200000
 41
0.200000
 42
0.414209
  0
VERTEX
  8
PG_SILKSCREEN_BOTTOM
 10
7.955001
 20
8.560003
 40
0.200000
 41
0.200000
 42
0.000000
  0
VERTEX
  8
PG_SILKSCREEN_BOTTOM
 10
8.554999
 20
8.560003
 40
0.200000
 41
0.200000
 42
0.414212
  0
VERTEX
  8
PG_SILKSCREEN_BOTTOM
 10
9.054998
 20
9.060002
 40
0.200000
 41
0.200000
 42
0.000000
  0
SEQEND
  0
TEXT
  8
RE_SILKSCREEN_BOTTOM
 10
8.128000
 20
12.382500
 11
8.382000
 21
12.382500
 40
0.762000
 41
1.000000
 50
0.000000
  7
STANDARD
 71
2
 72
1
  1
C2
 73
0
  0
POLYLINE
  8
PIN_BOTTOM
 66
1
 70
1
 40
0.000000
 41
0.000000
 39
0.000000
  0
VERTEX
  8
PIN_BOTTOM
 10
5.747995
 20
8.925001
 40
0.000000
 41
0.000000
 42
0.000000
  0
VERTEX
  8
PIN_BOTTOM
 10
6.698005
 20
8.925001
 40
0.000000
 41
0.000000
 42
0.000000
  0
VERTEX
  8
PIN_BOTTOM
 10
6.698005
 20
9.854997
 40
0.000000
 41
0.000000
 42
0.000000
  0
VERTEX
  8
PIN_BOTTOM
 10
5.747995
 20
9.854997
 40
0.000000
 41
0.000000
 42
0.000000
  0
SEQEND
  0
POLYLINE
  8
PIN_BOTTOM
 66
1
 70
1
 40
0.000000
 41
0.000000
 39
0.000000
  0
VERTEX
  8
PIN_BOTTOM
 10
5.747995
 20
10.465003
 40
0.000000
 41
0.000000
 42
0.000000
  0
VERTEX
  8
PIN_BOTTOM
 10
6.698005
 20
10.465003
 40
0.000000
 41
0.000000
 42
0.000000
  0
VERTEX
  8
PIN_BOTTOM
 10
6.698005
 20
11.394999
 40
0.000000
 41
0.000000
 42
0.000000
  0
VERTEX
  8
PIN_BOTTOM
 10
5.747995
 20
11.394999
 40
0.000000
 41
0.000000
 42
0.000000
  0
SEQEND
  0
POLYLINE
  8
PG_SILKSCREEN_BOTTOM
 66
1
 70
0
 40
0.000000
 41
0.000000
 39
0.000000
  0
VERTEX
  8
PG_SILKSCREEN_BOTTOM
 10
6.722999
 20
10.060000
 40
0.119990
 41
0.119990
 42
0.000000
  0
VERTEX
  8
PG_SILKSCREEN_BOTTOM
 10
5.723001
 20
10.060000
 40
0.119990
 41
0.119990
 42
0.000000
  0
SEQEND
  0
POLYLINE
  8
PG_SILKSCREEN_BOTTOM
 66
1
 70
0
 40
0.000000
 41
0.000000
 39
0.000000
  0
VERTEX
  8
PG_SILKSCREEN_BOTTOM
 10
5.723001
 20
10.260000
 40
0.119990
 41
0.119990
 42
0.000000
  0
VERTEX
  8
PG_SILKSCREEN_BOTTOM
 10
6.722999
 20
10.260000
 40
0.119990
 41
0.119990
 42
0.000000
  0
SEQEND
  0
POLYLINE
  8
PG_SILKSCREEN_BOTTOM
 66
1
 70
0
 40
0.000000
 41
0.000000
 39
0.000000
  0
VERTEX
  8
PG_SILKSCREEN_BOTTOM
 10
7.022998
 20
9.060002
 40
0.200000
 41
0.200000
 42
0.000000
  0
VERTEX
  8
PG_SILKSCREEN_BOTTOM
 10
7.022998
 20
11.259998
 40
0.200000
 41
0.200000
 42
0.414222
  0
VERTEX
  8
PG_SILKSCREEN_BOTTOM
 10
6.522999
 20
11.759997
 40
0.200000
 41
0.200000
 42
0.000000
  0
VERTEX
  8
PG_SILKSCREEN_BOTTOM
 10
5.923001
 20
11.759997
 40
0.200000
 41
0.200000
 42
0.414214
  0
VERTEX
  8
PG_SILKSCREEN_BOTTOM
 10
5.423002
 20
11.259998
 40
0.200000
 41
0.200000
 42
0.000000
  0
VERTEX
  8
PG_SILKSCREEN_BOTTOM
 10
5.423002
 20
9.060002
 40
0.200000
 41
0.200000
 42
0.414206
  0
VERTEX
  8
PG_SILKSCREEN_BOTTOM
 10
5.923001
 20
8.560003
 40
0.200000
 41
0.200000
 42
0.000000
  0
VERTEX
  8
PG_SILKSCREEN_BOTTOM
 10
6.522999
 20
8.560003
 40
0.200000
 41
0.200000
 42
0.414215
  0
VERTEX
  8
PG_SILKSCREEN_BOTTOM
 10
7.022998
 20
9.060002
 40
0.200000
 41
0.200000
 42
0.000000
  0
SEQEND
  0
TEXT
  8
RE_SILKSCREEN_BOTTOM
 10
5.969000
 20
12.382500
 11
6.223000
 21
12.382500
 40
0.762000
 41
1.000000
 50
0.000000
  7
STANDARD
 71
2
 72
1
  1
C3
 73
0
  0
POLYLINE
  8
PIN_BOTTOM
 66
1
 70
1
 40
0.000000
 41
0.000000
 39
0.000000
  0
VERTEX
  8
PIN_BOTTOM
 10
16.750995
 20
17.937988
 40
0.000000
 41
0.000000
 42
0.000000
  0
VERTEX
  8
PIN_BOTTOM
 10
16.750995
 20
18.637987
 40
0.000000
 41
0.000000
 42
0.000000
  0
VERTEX
  8
PIN_BOTTOM
 10
15.750997
 20
18.637987
 40
0.000000
 41
0.000000
 42
0.000000
  0
VERTEX
  8
PIN_BOTTOM
 10
15.750997
 20
17.937988
 40
0.000000
 41
0.000000
 42
0.000000
  0
SEQEND
  0
POLYLINE
  8
PIN_BOTTOM
 66
1
 70
1
 40
0.000000
 41
0.000000
 39
0.000000
  0
VERTEX
  8
PIN_BOTTOM
 10
13.000990
 20
17.937988
 40
0.000000
 41
0.000000
 42
0.000000
  0
VERTEX
  8
PIN_BOTTOM
 10
13.000990
 20
18.637987
 40
0.000000
 41
0.000000
 42
0.000000
  0
VERTEX
  8
PIN_BOTTOM
 10
12.000992
 20
18.637987
 40
0.000000
 41
0.000000
 42
0.000000
  0
VERTEX
  8
PIN_BOTTOM
 10
12.000992
 20
17.937988
 40
0.000000
 41
0.000000
 42
0.000000
  0
SEQEND
  0
POLYLINE
  8
PG_SILKSCREEN_BOTTOM
 66
1
 70
0
 40
0.000000
 41
0.000000
 39
0.000000
  0
VERTEX
  8
PG_SILKSCREEN_BOTTOM
 10
12.951003
 20
18.787999
 40
0.200000
 41
0.200000
 42
0.000000
  0
VERTEX
  8
PG_SILKSCREEN_BOTTOM
 10
12.951003
 20
19.087998
 40
0.200000
 41
0.200000
 42
0.000000
  0
VERTEX
  8
PG_SILKSCREEN_BOTTOM
 10
15.750997
 20
19.087998
 40
0.200000
 41
0.200000
 42
0.000000
  0
VERTEX
  8
PG_SILKSCREEN_BOTTOM
 10
15.750997
 20
18.787999
 40
0.200000
 41
0.200000
 42
0.000000
  0
SEQEND
  0
POLYLINE
  8
PG_SILKSCREEN_BOTTOM
 66
1
 70
0
 40
0.000000
 41
0.000000
 39
0.000000
  0
VERTEX
  8
PG_SILKSCREEN_BOTTOM
 10
15.750997
 20
17.788001
 40
0.200000
 41
0.200000
 42
0.000000
  0
VERTEX
  8
PG_SILKSCREEN_BOTTOM
 10
15.750997
 20
17.488002
 40
0.200000
 41
0.200000
 42
0.000000
  0
VERTEX
  8
PG_SILKSCREEN_BOTTOM
 10
12.951003
 20
17.488002
 40
0.200000
 41
0.200000
 42
0.000000
  0
VERTEX
  8
PG_SILKSCREEN_BOTTOM
 10
12.951003
 20
17.788001
 40
0.200000
 41
0.200000
 42
0.000000
  0
SEQEND
  0
POLYLINE
  8
PG_SILKSCREEN_BOTTOM
 66
1
 70
0
 40
0.000000
 41
0.000000
 39
0.000000
  0
VERTEX
  8
PG_SILKSCREEN_BOTTOM
 10
15.250998
 20
18.987999
 40
0.399999
 41
0.399999
 42
0.000000
  0
VERTEX
  8
PG_SILKSCREEN_BOTTOM
 10
15.250998
 20
17.588001
 40
0.399999
 41
0.399999
 42
0.000000
  0
SEQEND
  0
TEXT
  8
RE_SILKSCREEN_BOTTOM
 10
18.935700
 20
17.843500
 11
0.000000
 21
0.000000
 40
0.762000
 41
1.000000
 50
0.000000
  7
STANDARD
 71
2
 72
0
  1
D2
 73
0
  0
POLYLINE
  8
PIN_BOTTOM
 66
1
 70
1
 40
0.000000
 41
0.000000
 39
0.000000
  0
VERTEX
  8
PIN_BOTTOM
 10
16.750995
 20
19.842988
 40
0.000000
 41
0.000000
 42
0.000000
  0
VERTEX
  8
PIN_BOTTOM
 10
16.750995
 20
20.542987
 40
0.000000
 41
0.000000
 42
0.000000
  0
VERTEX
  8
PIN_BOTTOM
 10
15.750997
 20
20.542987
 40
0.000000
 41
0.000000
 42
0.000000
  0
VERTEX
  8
PIN_BOTTOM
 10
15.750997
 20
19.842988
 40
0.000000
 41
0.000000
 42
0.000000
  0
SEQEND
  0
POLYLINE
  8
PIN_BOTTOM
 66
1
 70
1
 40
0.000000
 41
0.000000
 39
0.000000
  0
VERTEX
  8
PIN_BOTTOM
 10
13.000990
 20
19.842988
 40
0.000000
 41
0.000000
 42
0.000000
  0
VERTEX
  8
PIN_BOTTOM
 10
13.000990
 20
20.542987
 40
0.000000
 41
0.000000
 42
0.000000
  0
VERTEX
  8
PIN_BOTTOM
 10
12.000992
 20
20.542987
 40
0.000000
 41
0.000000
 42
0.000000
  0
VERTEX
  8
PIN_BOTTOM
 10
12.000992
 20
19.842988
 40
0.000000
 41
0.000000
 42
0.000000
  0
SEQEND
  0
POLYLINE
  8
PG_SILKSCREEN_BOTTOM
 66
1
 70
0
 40
0.000000
 41
0.000000
 39
0.000000
  0
VERTEX
  8
PG_SILKSCREEN_BOTTOM
 10
12.951003
 20
20.692999
 40
0.200000
 41
0.200000
 42
0.000000
  0
VERTEX
  8
PG_SILKSCREEN_BOTTOM
 10
12.951003
 20
20.992998
 40
0.200000
 41
0.200000
 42
0.000000
  0
VERTEX
  8
PG_SILKSCREEN_BOTTOM
 10
15.750997
 20
20.992998
 40
0.200000
 41
0.200000
 42
0.000000
  0
VERTEX
  8
PG_SILKSCREEN_BOTTOM
 10
15.750997
 20
20.692999
 40
0.200000
 41
0.200000
 42
0.000000
  0
SEQEND
  0
POLYLINE
  8
PG_SILKSCREEN_BOTTOM
 66
1
 70
0
 40
0.000000
 41
0.000000
 39
0.000000
  0
VERTEX
  8
PG_SILKSCREEN_BOTTOM
 10
15.750997
 20
19.693001
 40
0.200000
 41
0.200000
 42
0.000000
  0
VERTEX
  8
PG_SILKSCREEN_BOTTOM
 10
15.750997
 20
19.393002
 40
0.200000
 41
0.200000
 42
0.000000
  0
VERTEX
  8
PG_SILKSCREEN_BOTTOM
 10
12.951003
 20
19.393002
 40
0.200000
 41
0.200000
 42
0.000000
  0
VERTEX
  8
PG_SILKSCREEN_BOTTOM
 10
12.951003
 20
19.693001
 40
0.200000
 41
0.200000
 42
0.000000
  0
SEQEND
  0
POLYLINE
  8
PG_SILKSCREEN_BOTTOM
 66
1
 70
0
 40
0.000000
 41
0.000000
 39
0.000000
  0
VERTEX
  8
PG_SILKSCREEN_BOTTOM
 10
15.250998
 20
20.892999
 40
0.399999
 41
0.399999
 42
0.000000
  0
VERTEX
  8
PG_SILKSCREEN_BOTTOM
 10
15.250998
 20
19.493001
 40
0.399999
 41
0.399999
 42
0.000000
  0
SEQEND
  0
TEXT
  8
RE_SILKSCREEN_BOTTOM
 10
18.935700
 20
19.748500
 11
0.000000
 21
0.000000
 40
0.762000
 41
1.000000
 50
0.000000
  7
STANDARD
 71
2
 72
0
  1
D1
 73
0
  0
POLYLINE
  8
PIN_BOTTOM
 66
1
 70
1
 40
0.000000
 41
0.000000
 39
0.000000
  0
VERTEX
  8
PIN_BOTTOM
 10
18.042992
 20
11.097997
 40
0.000000
 41
0.000000
 42
0.000000
  0
VERTEX
  8
PIN_BOTTOM
 10
18.042992
 20
12.297994
 40
0.000000
 41
0.000000
 42
0.000000
  0
VERTEX
  8
PIN_BOTTOM
 10
15.842996
 20
12.297994
 40
0.000000
 41
0.000000
 42
0.000000
  0
VERTEX
  8
PIN_BOTTOM
 10
15.842996
 20
11.097997
 40
0.000000
 41
0.000000
 42
0.000000
  0
SEQEND
  0
POLYLINE
  8
PIN_BOTTOM
 66
1
 70
1
 40
0.000000
 41
0.000000
 39
0.000000
  0
VERTEX
  8
PIN_BOTTOM
 10
18.042992
 20
8.798001
 40
0.000000
 41
0.000000
 42
0.000000
  0
VERTEX
  8
PIN_BOTTOM
 10
18.042992
 20
9.997999
 40
0.000000
 41
0.000000
 42
0.000000
  0
VERTEX
  8
PIN_BOTTOM
 10
15.842996
 20
9.997999
 40
0.000000
 41
0.000000
 42
0.000000
  0
VERTEX
  8
PIN_BOTTOM
 10
15.842996
 20
8.798001
 40
0.000000
 41
0.000000
 42
0.000000
  0
SEQEND
  0
POLYLINE
  8
PIN_BOTTOM
 66
1
 70
1
 40
0.000000
 41
0.000000
 39
0.000000
  0
VERTEX
  8
PIN_BOTTOM
 10
18.042992
 20
6.498006
 40
0.000000
 41
0.000000
 42
0.000000
  0
VERTEX
  8
PIN_BOTTOM
 10
18.042992
 20
7.698003
 40
0.000000
 41
0.000000
 42
0.000000
  0
VERTEX
  8
PIN_BOTTOM
 10
15.842996
 20
7.698003
 40
0.000000
 41
0.000000
 42
0.000000
  0
VERTEX
  8
PIN_BOTTOM
 10
15.842996
 20
6.498006
 40
0.000000
 41
0.000000
 42
0.000000
  0
SEQEND
  0
POLYLINE
  8
PIN_BOTTOM
 66
1
 70
1
 40
0.000000
 41
0.000000
 39
0.000000
  0
VERTEX
  8
PIN_BOTTOM
 10
11.818010
 20
11.147997
 40
0.000000
 41
0.000000
 42
0.000000
  0
VERTEX
  8
PIN_BOTTOM
 10
9.668002
 20
11.147997
 40
0.000000
 41
0.000000
 42
0.000000
  0
VERTEX
  8
PIN_BOTTOM
 10
9.668002
 20
7.648004
 40
0.000000
 41
0.000000
 42
0.000000
  0
VERTEX
  8
PIN_BOTTOM
 10
11.818010
 20
7.648004
 40
0.000000
 41
0.000000
 42
0.000000
  0
SEQEND
  0
POLYLINE
  8
PG_SILKSCREEN_BOTTOM
 66
1
 70
0
 40
0.000000
 41
0.000000
 39
0.000000
  0
VERTEX
  8
PG_SILKSCREEN_BOTTOM
 10
12.218010
 20
6.047994
 40
0.200000
 41
0.200000
 42
0.000000
  0
VERTEX
  8
PG_SILKSCREEN_BOTTOM
 10
12.218010
 20
12.748006
 40
0.200000
 41
0.200000
 42
0.000000
  0
VERTEX
  8
PG_SILKSCREEN_BOTTOM
 10
15.467990
 20
12.748006
 40
0.200000
 41
0.200000
 42
0.000000
  0
VERTEX
  8
PG_SILKSCREEN_BOTTOM
 10
15.467990
 20
6.047994
 40
0.200000
 41
0.200000
 42
0.000000
  0
VERTEX
  8
PG_SILKSCREEN_BOTTOM
 10
12.218010
 20
6.047994
 40
0.200000
 41
0.200000
 42
0.000000
  0
SEQEND
  0
TEXT
  8
RE_SILKSCREEN_BOTTOM
 10
10.668000
 20
12.382500
 11
10.922000
 21
12.382500
 40
0.762000
 41
1.000000
 50
0.000000
  7
STANDARD
 71
2
 72
1
  1
U2
 73
0
  0
POLYLINE
  8
RE_DISPLAY_TOP
 66
1
 70
1
 40
0.000000
 41
0.000000
 39
0.000000
  0
VERTEX
  8
RE_DISPLAY_TOP
 10
17.644999
 20
1.778000
 40
0.000000
 41
0.000000
 42
1.000000
  0
VERTEX
  8
RE_DISPLAY_TOP
 10
16.645001
 20
1.778000
 40
0.000000
 41
0.000000
 42
1.000000
  0
SEQEND
  0
POLYLINE
  8
RE_DISPLAY_TOP
 66
1
 70
1
 40
0.000000
 41
0.000000
 39
0.000000
  0
VERTEX
  8
RE_DISPLAY_TOP
 10
15.104999
 20
1.778000
 40
0.000000
 41
0.000000
 42
1.000000
  0
VERTEX
  8
RE_DISPLAY_TOP
 10
14.105001
 20
1.778000
 40
0.000000
 41
0.000000
 42
1.000000
  0
SEQEND
  0
POLYLINE
  8
RE_DISPLAY_TOP
 66
1
 70
1
 40
0.000000
 41
0.000000
 39
0.000000
  0
VERTEX
  8
RE_DISPLAY_TOP
 10
12.564999
 20
1.778000
 40
0.000000
 41
0.000000
 42
1.000000
  0
VERTEX
  8
RE_DISPLAY_TOP
 10
11.565001
 20
1.778000
 40
0.000000
 41
0.000000
 42
1.000000
  0
SEQEND
  0
POLYLINE
  8
RE_DISPLAY_TOP
 66
1
 70
1
 40
0.000000
 41
0.000000
 39
0.000000
  0
VERTEX
  8
RE_DISPLAY_TOP
 10
10.024999
 20
1.778000
 40
0.000000
 41
0.000000
 42
1.000000
  0
VERTEX
  8
RE_DISPLAY_TOP
 10
9.025001
 20
1.778000
 40
0.000000
 41
0.000000
 42
1.000000
  0
SEQEND
  0
POLYLINE
  8
RE_DISPLAY_TOP
 66
1
 70
1
 40
0.000000
 41
0.000000
 39
0.000000
  0
VERTEX
  8
RE_DISPLAY_TOP
 10
7.484999
 20
1.778000
 40
0.000000
 41
0.000000
 42
1.000000
  0
VERTEX
  8
RE_DISPLAY_TOP
 10
6.485001
 20
1.778000
 40
0.000000
 41
0.000000
 42
1.000000
  0
SEQEND
  0
POLYLINE
  8
RE_DISPLAY_TOP
 66
1
 70
1
 40
0.000000
 41
0.000000
 39
0.000000
  0
VERTEX
  8
RE_DISPLAY_TOP
 10
4.944999
 20
1.778000
 40
0.000000
 41
0.000000
 42
1.000000
  0
VERTEX
  8
RE_DISPLAY_TOP
 10
3.945001
 20
1.778000
 40
0.000000
 41
0.000000
 42
1.000000
  0
SEQEND
  0
POLYLINE
  8
BG_OUTLINE
 66
1
 70
1
 40
0.000000
 41
0.000000
 39
0.000000
  0
VERTEX
  8
BG_OUTLINE
 10
19.716013
 20
30.015993
 40
0.000000
 41
0.000000
 42
-0.414199
  0
VERTEX
  8
BG_OUTLINE
 10
20.523987
 20
29.208019
 40
0.000000
 41
0.000000
 42
0.000000
  0
VERTEX
  8
BG_OUTLINE
 10
20.523987
 20
0.807999
 40
0.000000
 41
0.000000
 42
-0.414216
  0
VERTEX
  8
BG_OUTLINE
 10
19.715988
 20
0.000000
 40
0.000000
 41
0.000000
 42
0.000000
  0
VERTEX
  8
BG_OUTLINE
 10
1.315999
 20
0.000000
 40
0.000000
 41
0.000000
 42
-0.414213
  0
VERTEX
  8
BG_OUTLINE
 10
0.508000
 20
0.807999
 40
0.000000
 41
0.000000
 42
0.000000
  0
VERTEX
  8
BG_OUTLINE
 10
0.508000
 20
29.207993
 40
0.000000
 41
0.000000
 42
-0.414215
  0
VERTEX
  8
BG_OUTLINE
 10
1.315999
 20
30.015993
 40
0.000000
 41
0.000000
 42
0.000000
  0
SEQEND
  0
POLYLINE
  8
BG_OUTLINE
 66
1
 70
1
 40
0.000000
 41
0.000000
 39
0.000000
  0
VERTEX
  8
BG_OUTLINE
 10
19.716013
 20
30.015993
 40
0.000000
 41
0.000000
 42
-0.414199
  0
VERTEX
  8
BG_OUTLINE
 10
20.523987
 20
29.208019
 40
0.000000
 41
0.000000
 42
0.000000
  0
VERTEX
  8
BG_OUTLINE
 10
20.523987
 20
0.807999
 40
0.000000
 41
0.000000
 42
-0.414216
  0
VERTEX
  8
BG_OUTLINE
 10
19.715988
 20
0.000000
 40
0.000000
 41
0.000000
 42
0.000000
  0
VERTEX
  8
BG_OUTLINE
 10
1.315999
 20
0.000000
 40
0.000000
 41
0.000000
 42
-0.414213
  0
VERTEX
  8
BG_OUTLINE
 10
0.508000
 20
0.807999
 40
0.000000
 41
0.000000
 42
0.000000
  0
VERTEX
  8
BG_OUTLINE
 10
0.508000
 20
29.207993
 40
0.000000
 41
0.000000
 42
-0.414215
  0
VERTEX
  8
BG_OUTLINE
 10
1.315999
 20
30.015993
 40
0.000000
 41
0.000000
 42
0.000000
  0
SEQEND
  0
TEXT
  8
BO_SILKSCREEN_BOTTOM
 10
6.007100
 20
3.048000
 11
0.000000
 21
0.000000
 40
0.762000
 41
0.866667
 50
0.000000
  7
STANDARD
 71
2
 72
0
  1
IO_0
 73
0
  0
TEXT
  8
BO_SILKSCREEN_BOTTOM
 10
6.604000
 20
2.705100
 11
0.000000
 21
0.000000
 40
0.762000
 41
0.866667
 50
270.000000
  7
STANDARD
 71
2
 72
0
  1
RST
 73
0
  0
TEXT
  8
BO_SILKSCREEN_BOTTOM
 10
11.684000
 20
2.705100
 11
0.000000
 21
0.000000
 40
0.762000
 41
0.866667
 50
270.000000
  7
STANDARD
 71
2
 72
0
  1
TXD
 73
0
  0
TEXT
  8
BO_SILKSCREEN_BOTTOM
 10
9.144000
 20
2.705100
 11
0.000000
 21
0.000000
 40
0.762000
 41
0.866667
 50
270.000000
  7
STANDARD
 71
2
 72
0
  1
RXD
 73
0
  0
TEXT
  8
BO_SILKSCREEN_BOTTOM
 10
14.224000
 20
2.832100
 11
0.000000
 21
0.000000
 40
0.762000
 41
0.866667
 50
270.000000
  7
STANDARD
 71
2
 72
0
  1
GND
 73
0
  0
TEXT
  8
BO_SILKSCREEN_BOTTOM
 10
18.122900
 20
2.794000
 11
0.000000
 21
0.000000
 40
0.762000
 41
0.866667
 50
0.000000
  7
STANDARD
 71
2
 72
0
  1
VCC
 73
0
  0
ENDSEC
  0
EOF
